<svg width="82" height="89" viewBox="0 0 82 89" fill="none" xmlns="http://www.w3.org/2000/svg">
<path d="M9.01811 68.0269C8.73744 69.1405 8.55636 70.2722 8.53826 71.422C8.52015 73.3776 9.01811 75.3695 10.1951 76.9267C11.6075 78.7918 13.8438 79.8511 16.0981 80.4939C19.5748 81.4989 23.2778 81.6437 26.8359 81.0009" stroke="#313C62" stroke-width="1.35806" stroke-miterlimit="10" stroke-linecap="round" stroke-linejoin="round"/>
<path d="M73.7616 60.4398C75.0835 60.4941 76.7765 61.318 77.6004 62.3411C77.9988 62.8391 78.2523 63.4909 78.1436 64.1156C77.9626 65.0844 77.021 65.691 76.1609 66.1437C74.9567 66.7865 73.7254 67.3841 72.4669 67.9273" stroke="#313C62" stroke-width="1.35806" stroke-miterlimit="10" stroke-linecap="round" stroke-linejoin="round"/>
<path d="M58.2133 36.4163C62.8215 38.8231 66.7975 42.4602 69.4476 46.9056C69.451 47.0513 69.4806 47.1935 69.5297 47.3314C68.8957 47.5984 68.2133 47.7131 67.5355 47.64H67.5336C67.3698 47.6232 67.2035 47.597 67.017 47.5696C66.8362 47.5431 66.6392 47.5162 66.4418 47.5042C66.048 47.4803 65.5979 47.5118 65.184 47.7689C64.7977 48.0083 64.5658 48.3686 64.391 48.6673C64.1993 48.9948 64.0776 49.2396 63.8929 49.4427C63.6007 49.7602 63.1686 49.9112 62.6615 49.9017C62.1513 49.8921 61.6036 49.7182 61.1556 49.4368L61.1547 49.4359L60.9828 49.3235C60.5885 49.0523 60.2282 48.7193 59.8539 48.3558C59.4359 47.9498 58.9904 47.4949 58.4945 47.1087L58.4926 47.1077L58.2933 46.9612C57.8168 46.6285 57.2591 46.3568 56.6791 46.2269C56.0137 46.0779 55.2921 46.1104 54.6478 46.4857C54.1311 46.7856 53.7865 47.2367 53.517 47.6819C53.3821 47.9047 53.2604 48.1367 53.1459 48.3548C53.0291 48.5773 52.9199 48.7854 52.8031 48.9808L52.8021 48.9827C52.1295 50.1177 51.0227 50.9877 49.7982 51.1546C48.5633 51.3216 47.2493 50.6573 46.8226 49.5648V49.5628L46.7533 49.3597C46.4565 48.331 46.8844 47.1204 47.6019 46.1087C47.9881 45.5707 48.4357 45.0769 48.9017 44.5501C49.3609 44.031 49.8345 43.4833 50.2308 42.8675C50.7369 42.0813 50.9979 41.2692 51.0043 40.4388C51.0106 39.6102 50.7641 38.7938 50.307 37.9964L50.3031 37.9905L49.9076 37.3509C49.8594 37.2744 49.8132 37.1978 49.766 37.1224C49.8588 37.0678 49.9502 37.0107 50.0424 36.9544C51.1537 37.6353 52.5341 37.8908 53.8138 37.6038L53.8148 37.6048C54.2376 37.5109 54.6411 37.3564 55.0189 37.1566L55.0844 37.2982C56.1421 37.0814 57.1879 36.7972 58.2133 36.4163Z" fill="#ED145B" stroke="#313C62" stroke-width="0.905376"/>
<path d="M22.8519 44.1526C22.2384 45.3038 21.6785 46.4884 21.222 47.7562L21.2211 47.7581C20.2066 50.6109 19.6336 53.6207 19.5638 56.6566C18.9166 56.5218 18.2733 56.3602 17.641 56.1722C17.833 55.0436 18.0968 53.9358 18.432 52.8421C18.7 51.9755 19.0035 51.1182 19.3422 50.2894L19.3412 50.2884C19.8671 49.0321 20.4742 47.8213 21.1595 46.6644L21.1615 46.6614C21.4447 46.1747 21.7459 45.7045 22.0658 45.2425L22.0668 45.2415C22.3206 44.8725 22.5822 44.5091 22.8519 44.1526Z" fill="#E4E4E4" stroke="#313C62" stroke-width="0.905376"/>
<path d="M49.1599 65.96C49.8251 65.7221 50.536 65.8215 51.2439 66.1523C51.9546 66.4845 52.63 67.0376 53.1824 67.6416L53.1843 67.6426C53.4688 67.9514 53.7436 68.2778 54.0291 68.6133C54.3119 68.9457 54.6037 69.2864 54.9109 69.6094C55.525 70.255 56.2236 70.8563 57.0994 71.2217L57.1042 71.2236C58.1799 71.6589 59.3012 71.6623 60.3835 71.5254C60.9252 71.4569 61.4669 71.3518 61.9939 71.2432C62.5244 71.1339 63.0343 71.0215 63.5398 70.9326L63.5408 70.9336C65.894 70.5442 68.4464 70.8027 70.4714 71.8779C69.916 73.0198 69.2752 74.1115 68.5466 75.1523L68.5437 75.1553C68.4993 75.2199 68.453 75.2842 68.4001 75.3555C68.3515 75.4211 68.2974 75.4934 68.2449 75.5693C68.1195 75.7394 67.9925 75.9082 67.863 76.0752L67.4656 76.5703L67.4587 76.5781C67.3122 76.7613 67.1788 76.928 67.031 77.084L67.0115 77.1045L66.9939 77.1289C66.9388 77.2047 66.8655 77.285 66.7712 77.3887L66.7644 77.3965C66.5881 77.5992 66.4052 77.7996 66.2156 77.9893L66.2097 77.9951L66.2039 78.002C65.6737 78.5763 65.1062 79.1171 64.5105 79.6328L64.5037 79.6387L64.4968 79.6455C64.349 79.7846 64.2154 79.8932 64.0457 80.043C63.8572 80.2055 63.6584 80.3613 63.45 80.5244L63.4402 80.5322L63.4314 80.54C63.3036 80.6519 63.1729 80.7434 63.0144 80.8623L63.0076 80.8672C62.69 81.1142 62.3624 81.3534 62.033 81.585C61.6289 81.8633 61.2292 82.1297 60.823 82.377C60.4459 82.6069 60.0957 82.8256 59.7273 83.0273L59.7253 83.0293C59.6002 83.0988 59.5786 83.1175 59.5232 83.1396L59.4958 83.1514L59.4705 83.165C59.0855 83.3799 58.7053 83.5832 58.3191 83.7676L58.3044 83.7744L58.2898 83.7832C58.2419 83.8105 58.1849 83.839 58.115 83.874C57.7248 84.0554 57.3415 84.2342 56.95 84.4033C56.4977 84.5984 56.053 84.7766 55.5955 84.9561C55.1403 85.1256 54.6747 85.2861 54.2087 85.4385C53.283 85.7411 52.3476 85.9912 51.3933 86.1963L51.3884 86.1973C50.9185 86.3037 50.4385 86.3924 49.9558 86.4834C49.7195 86.5227 49.4828 86.5578 49.2449 86.5908L48.5154 86.6875C48.07 86.7409 47.6247 86.7856 47.1794 86.8213H47.1755C46.875 86.8478 46.5825 86.8656 46.283 86.8838L46.2683 86.8848L46.2537 86.8867C46.1256 86.9027 45.9868 86.9106 45.8376 86.9199C45.7093 86.9279 45.5785 86.9287 45.4314 86.9287H45.4167L45.4011 86.9297C45.1474 86.9466 44.8911 86.9463 44.6082 86.9463C44.2816 86.9463 43.9635 86.9376 43.6365 86.9199H43.5486C43.4408 86.9199 43.3303 86.9116 43.2009 86.9023L43.1843 86.9014H43.1687C43.1482 86.9014 43.123 86.8999 43.0818 86.8975C43.054 86.8958 43.0161 86.8945 42.9763 86.8936H42.9773C42.6343 86.8664 42.3139 86.8402 41.9861 86.8047L41.9812 86.8037L41.4412 86.7441L40.9089 86.6709L40.8992 86.6699L40.2839 86.5781C40.0795 86.5439 39.875 86.506 39.6697 86.4658H39.6687C39.2086 86.3774 38.7457 86.2707 38.28 86.1543H38.2791C37.9261 86.0638 37.5808 85.9749 37.2458 85.8779L37.2302 85.874L37.1472 85.8486C37.1177 85.8394 37.0766 85.827 37.033 85.8154C37.0041 85.8053 36.9796 85.7972 36.9656 85.793C36.9535 85.7894 36.9468 85.788 36.9412 85.7861C36.9379 85.7851 36.936 85.7844 36.9353 85.7842L36.9177 85.7764L36.8992 85.7715L36.4158 85.6211C36.257 85.5704 36.0998 85.5185 35.9431 85.4619L35.9363 85.459L35.9294 85.457L35.4001 85.2734L34.8621 85.0742C34.808 85.0519 34.7568 85.0311 34.7097 85.0127C34.6571 84.9921 34.6093 84.9736 34.5603 84.9531L34.5525 84.9502L34.0457 84.7432C33.8768 84.6721 33.7078 84.599 33.5388 84.5234L33.5369 84.5225C27.9618 82.0569 23.1291 77.8476 20.2195 72.5801C21.6581 72.8717 23.412 73.183 25.0222 73.0352C27.6057 76.3229 30.9467 79.0469 34.6755 80.9834L34.7009 80.9971L34.7273 81.0068C35.8542 81.4225 37.1603 81.7139 38.3718 81.1768L38.3738 81.1758C39.1997 80.8051 39.7686 80.1284 40.1746 79.4229L40.1785 79.416C40.3681 79.0737 40.4876 78.6599 40.5935 78.3359C40.7091 77.9823 40.814 77.7115 40.9636 77.5186L40.9666 77.5146C41.284 77.0966 41.809 76.9621 42.5017 77.0234C43.1913 77.0846 43.9231 77.3317 44.5046 77.5332V77.5322C45.1296 77.75 45.8786 77.9271 46.5916 77.9043C47.3085 77.8813 48.0454 77.6514 48.5369 76.9961L48.5378 76.9951C48.8924 76.5185 48.998 75.965 48.9851 75.4375C48.9723 74.9137 48.8425 74.3868 48.697 73.9268V73.9258C48.4603 73.1799 48.1346 72.3653 47.8933 71.6562C47.6716 71.0048 47.491 70.3663 47.4128 69.7178L47.3865 69.4395L47.3748 69.168C47.3686 68.5297 47.5044 67.8685 47.7751 67.3057C48.0838 66.6644 48.5524 66.1773 49.1599 65.96Z" fill="#ED145B" stroke="#313C62" stroke-width="0.905376"/>
<path d="M71.063 71.6911C70.4564 72.9948 69.7412 74.2352 68.9172 75.4122C68.8177 75.5571 68.709 75.6928 68.6094 75.8377C68.3559 76.1818 68.0934 76.5258 67.8127 76.8608C67.6678 77.0419 67.523 77.2229 67.36 77.395C67.2876 77.4946 67.1971 77.5942 67.1065 77.6937C66.9255 77.902 66.7353 78.1102 66.5361 78.3094C65.9929 78.8979 65.4134 79.4502 64.8068 79.9753C64.6529 80.1202 64.499 80.2469 64.3451 80.3827C64.1459 80.5548 63.9377 80.7177 63.7294 80.8807C63.5846 81.0075 63.4307 81.1161 63.2858 81.2247C62.9599 81.4782 62.6249 81.7227 62.2899 81.9581C61.8825 82.2388 61.4751 82.5104 61.0586 82.7639C60.6874 82.9902 60.3252 83.2166 59.945 83.4248C59.8635 83.4701 59.782 83.5244 59.6914 83.5606C59.3021 83.7779 58.9128 83.9861 58.5145 84.1763C58.4511 84.2125 58.3787 84.2487 58.3063 84.2849C57.9169 84.4659 57.5276 84.647 57.1293 84.8191C56.6675 85.0183 56.2148 85.1993 55.7531 85.3804C55.2913 85.5524 54.8206 85.7154 54.3498 85.8693C53.4081 86.1681 52.4575 86.4307 51.4887 86.6389C51.0089 86.7475 50.52 86.8381 50.0402 86.9286C49.5513 87.01 49.0623 87.0734 48.5735 87.1368C48.1208 87.1911 47.6681 87.2364 47.2154 87.2726C46.9075 87.2998 46.6088 87.3179 46.31 87.336C46.1651 87.3541 46.0112 87.3632 45.8664 87.3722C45.7215 87.3813 45.5767 87.3813 45.4318 87.3813C45.1602 87.3994 44.8886 87.3994 44.6079 87.3994C44.2729 87.3994 43.947 87.3903 43.612 87.3722H43.4128C43.3313 87.3722 43.2498 87.3632 43.1683 87.3541C43.0959 87.3541 43.0144 87.3451 42.942 87.3451C42.598 87.3179 42.272 87.2908 41.937 87.2545C41.5659 87.2183 41.2037 87.1731 40.8416 87.1187C40.416 87.0644 39.9995 86.992 39.5831 86.9105C39.1123 86.82 38.6415 86.7113 38.1707 86.5936C37.8176 86.503 37.4645 86.4125 37.1204 86.3129C37.048 86.2948 36.9756 86.2677 36.9031 86.2496C36.8579 86.2314 36.8126 86.2224 36.7674 86.2043C36.4414 86.1047 36.1155 86.0051 35.7895 85.8874C35.4274 85.7697 35.0653 85.6339 34.7031 85.4981C34.5944 85.4528 34.4949 85.4166 34.3862 85.3713C34.0422 85.2355 33.6981 85.0907 33.3541 84.9368C27.3967 82.3021 22.2632 77.7028 19.366 71.9356C19.4747 71.9718 19.5924 71.9899 19.7101 72.017C21.3307 72.3521 23.404 72.7866 25.2238 72.5603C26.7086 72.3701 28.0395 71.7364 28.8181 70.2516C29.4972 68.9569 29.6058 67.4449 29.7054 65.9782C29.8865 63.4522 29.8955 60.5097 27.94 58.8891C26.4189 57.6306 24.2551 57.6578 22.2904 57.4948C21.5208 57.4314 20.7603 57.3318 20.0088 57.2051C19.0401 57.024 18.0713 56.7886 17.1298 56.4899C17.3289 55.2042 17.6186 53.9458 17.9989 52.7054C18.2615 51.8271 18.5693 50.958 18.9224 50.116C19.4475 48.8394 20.0632 47.6081 20.7693 46.4311C21.0591 45.9331 21.3669 45.4533 21.6928 44.9825C22.6525 43.5611 23.7571 42.2211 24.9794 41.017H24.9884L25.2148 40.7906C27.9943 38.1107 31.3261 36.0555 34.9294 34.6974C36.0521 35.63 37.3015 36.4086 38.5781 37.0243C39.6465 37.5403 40.8687 38.0202 42.0185 38.2737C42.5074 38.3823 42.9963 38.4548 43.5034 38.4729C44.5083 38.5181 45.5133 38.3642 46.473 38.0926C47.3965 37.821 48.2928 37.4317 49.1348 36.9609C49.4426 36.7889 49.7504 36.6078 50.0492 36.4177C51.0994 37.151 52.4666 37.4407 53.716 37.16C54.4493 36.9971 55.1284 36.635 55.6988 36.146C55.4815 36.4267 55.237 36.6621 54.9925 36.8522C56.0971 36.6259 57.1836 36.3271 58.2429 35.9197C58.2701 35.9287 58.2881 35.9469 58.3153 35.9559C63.0776 38.4185 67.188 42.1759 69.9041 46.7842C69.8769 47.0196 69.9584 47.2731 70.1486 47.5357C70.1938 47.5176 70.2482 47.4904 70.2934 47.4632C70.4021 47.6624 70.5107 47.8707 70.6103 48.0789C70.6737 48.1966 70.737 48.3233 70.8004 48.4501C70.8729 48.595 70.9453 48.7398 71.0177 48.8847C71.1535 49.1744 71.2803 49.4641 71.398 49.7539C71.054 49.6362 70.7009 49.5094 70.3296 49.3736C69.9222 49.2287 69.5148 49.0748 69.0803 49.0748C68.6547 49.0748 68.1929 49.2559 67.9847 49.6271C67.7403 50.0436 67.867 50.5868 68.1477 50.967C68.4374 51.3564 68.8539 51.6099 69.2703 51.8543C68.7995 51.628 68.3106 51.4016 67.7946 51.3745C67.2695 51.3564 66.6991 51.5827 66.4818 52.0535C66.2736 52.5062 66.4456 53.0675 66.7806 53.4478C67.1065 53.828 67.5773 54.0544 68.03 54.2626C69.4967 54.9416 71.0087 55.503 72.5569 55.9557C71.7058 56.182 70.8638 56.4083 70.0128 56.6256C69.2885 56.8248 68.4465 57.1146 68.2201 57.8298C67.9847 58.5994 68.6638 59.4051 69.4514 59.5953C70.23 59.7854 71.0449 59.541 71.8054 59.2694C72.3577 59.0702 72.919 58.8619 73.4894 58.7895C73.7429 63.2077 72.919 67.6894 71.063 71.6911Z" stroke="#313C62" stroke-width="1.35806" stroke-miterlimit="10" stroke-linecap="round" stroke-linejoin="round"/>
<path d="M29.5707 50.048C30.477 49.3297 31.6363 49.0009 32.4633 49.4631C33.1057 49.8231 33.4739 50.6095 33.5658 51.4699C33.6115 51.898 33.5995 52.3365 33.5717 52.798C33.5446 53.2459 33.5001 53.7391 33.4906 54.216C33.4625 55.1918 33.5964 56.3213 34.2758 57.1808L34.2777 57.1828C34.6046 57.5914 35.009 57.883 35.4457 58.0969C34.9721 58.5557 34.549 59.0849 34.1566 59.5246C33.7451 59.9858 33.3374 60.3867 32.8392 60.6808C31.9674 61.1811 30.9835 61.4957 29.9857 61.5773C29.7514 60.5724 29.3245 59.6205 28.5687 58.8596C28.7556 58.2095 28.5951 57.5514 28.3832 57.0021L28.2748 56.7385C27.8407 55.7315 27.6043 54.7596 27.7035 53.7101V53.7092C27.8304 52.339 28.509 50.8719 29.5668 50.05L29.5707 50.048Z" fill="#ED145B" stroke="#313C62" stroke-width="0.905376"/>
<path d="M38.4619 58.6929C39.1509 58.7198 39.8296 58.7463 40.4619 58.8706C41.098 58.9958 41.6498 59.2144 42.0829 59.604V59.605C42.6941 60.1685 42.9727 61.0676 42.872 61.9312C42.69 61.9749 42.5173 62.0269 42.3691 62.0679L42.3613 62.0698C40.5624 62.6016 38.7231 62.9899 36.8613 63.2222L36.0615 63.312L36.0556 63.313C35.9105 63.3296 35.6912 63.3414 35.5175 63.3081C35.4916 63.3031 35.4702 63.2959 35.4521 63.2905C35.4696 63.2709 35.4907 63.2482 35.5165 63.2231C35.5788 63.1628 35.6482 63.1037 35.7255 63.0376C35.7933 62.9797 35.8847 62.9018 35.9531 62.8267L35.954 62.8257C36.6308 62.0747 37.2404 61.2781 37.8027 60.4487C38.0523 60.0832 38.3672 59.6059 38.4472 59.0366C38.4632 58.9244 38.4677 58.809 38.4619 58.6929Z" fill="#ED145B" stroke="#313C62" stroke-width="0.905376"/>
<path d="M38.408 48.9125C39.2524 48.446 40.324 48.4047 41.1912 48.7953L41.3621 48.8784C41.6983 49.061 42.0165 49.3081 42.3689 49.5825C42.7103 49.8482 43.0871 50.1423 43.4978 50.3627C43.8893 50.5784 44.3248 50.725 44.8074 50.725C45.6206 50.725 46.2843 50.3167 46.8396 49.9301C47.4317 49.5179 47.898 49.1396 48.4402 48.9536L48.4392 48.9526C49.5347 48.5801 50.88 49.1714 51.4861 50.226C52.0914 51.2793 52.028 52.6803 51.4568 53.8246C51.1419 54.446 50.6994 54.9911 50.1746 55.4565L50.1716 55.4594C49.7314 55.8572 49.2185 56.2085 48.6755 56.5014C48.018 56.8562 47.3101 57.141 46.5613 57.3305L46.5535 57.3325C46.2764 57.408 45.9891 57.4661 45.696 57.5121C46.0756 56.3789 45.9117 55.0811 45.3289 54.0512L45.3259 54.0463L45.1658 53.7914C44.3316 52.5474 42.9501 51.7422 41.5154 51.4506H41.5164C40.8575 51.3095 40.0108 51.1961 39.1716 51.2358C38.4121 51.2717 37.6121 51.4354 36.9675 51.8608C36.9246 51.375 36.9577 50.9113 37.0857 50.4916C37.2754 49.8699 37.6775 49.3164 38.407 48.9116L38.408 48.9125Z" fill="#667085" stroke="#313C62" stroke-width="0.905376"/>
<path d="M45.2332 57.4702C42.1911 57.7871 39.0494 56.7096 37.628 53.8849C37.5284 53.7037 37.4378 53.5136 37.3654 53.3054C37.2387 52.9886 37.1482 52.6626 37.0667 52.3456C38.1984 51.4674 40.154 51.6215 41.4215 51.8929C42.852 52.1827 44.201 53.0158 44.9344 54.2742C45.4776 55.2339 45.6134 56.447 45.2332 57.4702Z" stroke="#313C62" stroke-width="1.35806" stroke-miterlimit="10" stroke-linecap="round" stroke-linejoin="round"/>
<path d="M38.378 41.0312C39.2213 41.0312 39.9051 41.7143 39.9053 42.5576C39.9053 43.4011 39.2215 44.0849 38.378 44.0849C37.5347 44.0846 36.8516 43.4009 36.8516 42.5576C36.8519 41.7144 37.5349 41.0314 38.378 41.0312Z" fill="black" stroke="#313C62" stroke-width="0.905376"/>
<path d="M49.5801 41.0312C50.4235 41.0312 51.1072 41.7143 51.1075 42.5576C51.1075 43.4011 50.4236 44.0849 49.5801 44.0849C48.7369 44.0846 48.0538 43.4009 48.0538 42.5576C48.054 41.7144 48.737 41.0314 49.5801 41.0312Z" fill="black" stroke="#313C62" stroke-width="0.905376"/>
<path d="M30.1785 25.3224C23.2808 25.7884 16.5605 28.5777 11.3602 33.1331C6.15988 37.6886 2.51025 43.9833 1.14044 50.7596" stroke="#313C62" stroke-width="1.35806" stroke-miterlimit="10" stroke-linecap="round" stroke-linejoin="round"/>
<path d="M55.7899 36.0581C55.7808 36.067 55.7717 36.076 55.7627 36.0851C55.1833 36.6103 54.4771 36.9905 53.7166 37.1624C52.4671 37.4431 51.1 37.1536 50.0498 36.4202C49.751 36.6103 49.4432 36.7913 49.1354 36.9635C48.2934 37.4341 47.397 37.8236 46.4736 38.0952C45.5139 38.3666 44.5089 38.5205 43.5039 38.4754C42.9969 38.4573 42.508 38.3848 42.0191 38.2762C40.8693 38.0227 39.647 37.5428 38.5786 37.0267C37.3021 36.4111 36.0527 35.6324 34.93 34.7C32.8748 33.016 31.2542 30.8429 30.7109 28.2899C29.38 22.0517 33.4633 14.9356 39.1038 11.4498C39.7919 12.8623 40.9417 14.0302 42.2998 14.8541C42.9064 15.2252 43.5582 15.5331 44.2372 15.7594C46.5007 16.5291 48.9814 16.52 51.3354 16.0583C49.9502 17.5067 49.7781 19.9877 50.4753 21.7892C51.1181 23.4461 52.5396 24.786 54.2326 25.3203C54.124 25.8452 53.2005 30.7616 53.6984 30.7616C54.459 30.2183 54.5857 29.7837 55.5001 30.155C58.0442 31.1961 57.1932 34.3015 55.7899 36.0581Z" fill="#FDE8EF" stroke="#313C62" stroke-width="1.35806" stroke-miterlimit="10" stroke-linecap="round" stroke-linejoin="round"/>
<path d="M58.9859 16.9728C58.9134 17 58.85 17.0272 58.7776 17.0632C58.8229 16.9637 58.8591 16.8731 58.8953 16.7736C58.9315 16.8368 58.9587 16.9003 58.9859 16.9728Z" stroke="#313C62" stroke-width="1.35806" stroke-miterlimit="10" stroke-linecap="round" stroke-linejoin="round"/>
<path d="M40.0216 22.3564C39.5443 22.383 39.072 22.4955 38.634 22.6869C38.4392 22.7719 38.2377 22.8863 38.152 23.0808C38.0612 23.2868 38.1281 23.535 38.2627 23.7155C38.3973 23.8959 38.59 24.0227 38.7786 24.1457" stroke="#313C62" stroke-width="1.35806" stroke-miterlimit="10" stroke-linecap="round" stroke-linejoin="round"/>
<path d="M55.3341 29.9009C56.1136 30.1315 56.7412 30.7684 57.0447 31.5225C57.3482 32.2766 57.3461 33.1333 57.128 33.9164C56.686 35.5031 55.3265 36.798 53.7202 37.1623C52.1139 37.5266 50.3288 36.9448 49.2456 35.7041" stroke="#313C62" stroke-width="1.35806" stroke-miterlimit="10" stroke-linecap="round" stroke-linejoin="round"/>
<path d="M45.4686 67.8367C45.4504 68.1355 45.2241 68.389 44.9525 68.5338C44.6808 68.6695 44.373 68.7148 44.0742 68.7511C42.0643 68.9956 40.0272 69.0409 38.0082 68.9049C39.6651 69.3848 41.2313 70.1273 42.6709 71.087C43.1145 71.3857 43.5944 71.8203 43.4948 72.3454C43.4224 72.7348 43.0331 73.0063 42.6347 73.0516C42.2454 73.106 41.847 72.9882 41.4758 72.8525C39.7918 72.2821 38.1712 71.4944 36.6773 70.5347C36.4781 70.408 36.2699 70.2721 36.0436 70.2359C35.8353 70.2087 35.5727 70.2902 35.4822 70.4894C35.3555 70.7791 35.5818 70.924 35.7629 71.1413C36.2246 71.6845 36.6864 72.2188 37.1571 72.7528C37.4197 73.0698 37.7004 73.3866 37.8272 73.785C37.9539 74.1743 37.8905 74.6542 37.5736 74.9168C37.3382 75.1069 37.0033 75.1522 36.7045 75.0797C36.4057 75.0072 36.1341 74.8443 35.8897 74.6632C34.604 73.7397 34.0517 72.3364 32.8747 71.2953C31.8245 70.3718 30.557 69.6837 29.1989 69.3306C29.4615 68.5248 29.5701 67.6647 29.6516 66.8046C29.6697 66.533 29.6878 66.2523 29.7059 65.9806C29.7602 65.2653 29.7964 64.514 29.7784 63.7715C29.7784 63.6539 29.7784 63.5271 29.7693 63.4095C29.7602 63.1197 29.7331 62.8299 29.6969 62.5492C29.6788 62.4135 29.6607 62.2866 29.6425 62.1509C29.6335 62.1146 29.6335 62.0877 29.6245 62.0514C30.8286 62.0242 32.0237 61.671 33.0649 61.0735C34.1875 60.4126 34.8485 59.299 35.781 58.4027C35.944 58.2486 36.1341 58.0857 36.3423 57.9591H36.3514C36.7135 57.7327 37.121 57.624 37.4831 57.805C37.6642 57.8956 37.7909 58.0404 37.8815 58.2124C37.9992 58.448 38.0354 58.7195 37.9992 58.973C37.9358 59.4257 37.6823 59.8242 37.4288 60.1953C36.8765 61.0101 36.279 61.7888 35.6181 62.5222C35.437 62.7214 34.9118 63.0472 34.948 63.3551C35.0114 63.835 35.7901 63.7987 36.1069 63.7625C38.2708 63.5452 40.4075 63.1197 42.4898 62.5041C42.7524 62.4316 43.0059 62.35 43.2684 62.314C43.4224 62.2959 43.5763 62.2866 43.7302 62.3047C44.1467 62.35 44.5722 62.6217 44.6628 63.0381C44.7261 63.346 44.5812 63.6721 44.364 63.8984C44.1467 64.1248 43.857 64.2786 43.5763 64.4143C41.9647 65.2112 40.2445 65.7905 38.479 66.1344C40.4075 66.1256 42.2454 66.3338 44.1376 66.7321C44.4455 66.7956 44.7623 66.8678 45.0249 67.0398C45.2875 67.2211 45.4957 67.5199 45.4686 67.8367Z" stroke="#313C62" stroke-width="1.35806" stroke-miterlimit="10" stroke-linecap="round" stroke-linejoin="round"/>
<path d="M1.14135 50.7613C0.616231 53.3416 0.426102 56.0577 1.17757 58.5837C2.49941 62.9839 5.35135 66.1889 9.47081 68.2622C12.7302 69.8919 16.1344 71.2771 19.7106 72.0195C22.6621 72.6352 27.0894 73.5587 28.8187 70.254C28.9726 69.9553 29.0994 69.6474 29.199 69.3306C29.4615 68.5248 29.5702 67.6647 29.6516 66.8046C29.6698 66.5329 29.6879 66.2523 29.706 65.9807C29.7965 64.7041 29.8508 63.3189 29.6245 62.0513C29.4072 60.8653 28.9455 59.7788 28.0401 58.9821C28.0039 58.9459 27.9767 58.9187 27.9405 58.8916C26.4195 57.6331 24.2556 57.6603 22.2909 57.4973C19.3032 57.2619 16.3698 56.4471 13.6808 55.1162C11.2635 53.9301 9.3169 52.4 9.13582 49.5028C9.00907 47.52 9.67905 45.5735 10.4486 43.7446" stroke="#313C62" stroke-width="1.35806" stroke-miterlimit="10" stroke-linecap="round" stroke-linejoin="round"/>
<path d="M80.235 59.2991C80.0177 59.9237 79.7189 60.5212 79.3658 61.0826C79.2844 61.2093 78.2522 62.6127 78.1345 62.4498C77.8448 62.0243 77.4645 61.6529 77.039 61.3543C76.8308 61.2093 76.6044 61.0826 76.369 60.9739C76.1608 60.8835 75.862 60.8291 75.7353 60.639C75.4908 60.2948 75.69 59.8512 75.3912 59.4801C75.0925 59.0999 74.6216 58.8554 74.1418 58.792C73.9245 58.7648 73.7072 58.7739 73.4899 58.792C72.9195 58.8645 72.3582 59.0727 71.8059 59.2719C71.0455 59.5435 70.2306 59.788 69.452 59.5979C68.6643 59.4076 67.9853 58.6019 68.2206 57.8323C68.447 57.117 69.289 56.8274 70.0133 56.628C70.8644 56.411 71.7064 56.1846 72.5574 55.9583C71.0092 55.5056 69.4972 54.9442 68.0305 54.2651C67.5778 54.0569 67.107 53.8306 66.7811 53.4504C66.4461 53.07 66.2741 52.5087 66.4823 52.0561C66.6996 51.5852 67.27 51.3589 67.7951 51.377C68.3112 51.4042 68.8001 51.6306 69.2709 51.8569C68.8544 51.6124 68.438 51.3589 68.1482 50.9694C67.8676 50.5892 67.7408 50.0461 67.9853 49.6295C68.1935 49.2584 68.6552 49.0773 69.0807 49.0773C69.5154 49.0773 69.9227 49.2312 70.3302 49.3762C70.7014 49.5119 71.0545 49.6388 71.3985 49.7564C72.3673 50.0822 73.2726 50.372 74.3229 50.7524C73.5646 50.2467 72.7741 49.7905 72.0279 49.2665C71.6599 49.008 71.3023 48.7335 70.9697 48.4304C70.6512 48.1403 70.4332 47.7985 70.1515 47.4788C69.9696 47.2723 69.8952 47.0672 69.9047 46.7866C69.9228 46.2524 70.4388 45.8632 71.2265 45.9991C71.6973 46.0805 72.1228 46.3431 72.5302 46.5875C74.2595 47.6649 76.016 48.7513 77.4917 50.1547C78.9675 51.5671 80.1807 53.3416 80.5519 55.3515C80.8054 56.6643 80.6696 58.0405 80.235 59.2991Z" stroke="#313C62" stroke-width="1.35806" stroke-miterlimit="10" stroke-linecap="round" stroke-linejoin="round"/>
<path d="M45.3463 21.3026C45.859 21.2285 46.4026 21.4144 46.7627 21.787C47.1227 22.1595 47.2898 22.7092 47.1982 23.2191" stroke="#313C62" stroke-width="1.35806" stroke-miterlimit="10" stroke-linecap="round" stroke-linejoin="round"/>
<path d="M39.0958 16.6455C40.0247 16.3961 41.0979 16.9383 41.4485 17.8339" stroke="#313C62" stroke-width="1.35806" stroke-miterlimit="10" stroke-linecap="round" stroke-linejoin="round"/>
<path d="M63.9112 32.346C62.3358 33.9576 60.362 35.1253 58.2435 35.9222C57.1842 36.3296 56.0978 36.6284 54.9932 36.8548C55.2376 36.6647 55.4821 36.4293 55.6994 36.1485C55.7265 36.1304 55.7447 36.1032 55.7628 36.0851C55.7718 36.076 55.7808 36.067 55.7899 36.0581C57.1932 34.3015 58.0443 31.1962 55.5002 30.1551C54.5857 29.7837 54.459 30.2183 53.6985 30.7616C53.2005 30.7616 54.124 25.8452 54.2327 25.3203C52.5396 24.786 51.1182 23.4461 50.4754 21.7892C49.7782 19.9877 49.9502 17.5068 51.3355 16.0583C48.9815 16.52 46.5007 16.5291 44.2373 15.7594C43.5583 15.5331 42.9064 15.2252 42.2998 14.8541C40.9418 14.0303 39.7919 12.8623 39.1038 11.4499C39.0495 11.3592 39.0043 11.2688 38.968 11.1782C36.8132 6.28019 40.8874 1.60853 45.6406 0.820744C50.4754 0.00599413 54.6039 2.83065 57.4105 6.46122C59.6287 9.32213 60.3077 13.4144 58.8953 16.7736C58.8591 16.873 58.823 16.9637 58.7776 17.0631C58.8501 17.0271 58.9135 16.9999 58.9859 16.9727C62.7341 15.3249 66.4643 19.6707 67.0709 23.0931C67.6594 26.4248 66.2832 29.9194 63.9112 32.346Z" stroke="#313C62" stroke-width="1.35806" stroke-miterlimit="10" stroke-linecap="round" stroke-linejoin="round"/>
<path d="M69.2672 51.8567L73.1252 53.5558" stroke="#313C62" stroke-width="1.35806" stroke-miterlimit="10" stroke-linecap="round" stroke-linejoin="round"/>
<path d="M59.5429 16.8097C59.8846 15.3753 60.7746 14.0262 62.0953 13.3705C63.416 12.7148 65.1696 12.8831 66.1847 13.9525" stroke="#313C62" stroke-width="1.35806" stroke-miterlimit="10" stroke-linecap="round" stroke-linejoin="round"/>
<path d="M36.6009 26.768C36.6674 27.4772 37.1739 28.1263 37.8457 28.3631C38.5174 28.5999 39.3191 28.4121 39.8156 27.9015" stroke="#313C62" stroke-width="1.35806" stroke-miterlimit="10" stroke-linecap="round" stroke-linejoin="round"/>
<path d="M29.8026 27.3578C28.4606 28.5223 27.7394 30.3644 27.9339 32.1305C28.1284 33.8965 29.2333 35.5375 30.7965 36.382" stroke="#313C62" stroke-width="1.35806" stroke-miterlimit="10" stroke-linecap="round" stroke-linejoin="round"/>
<path d="M9.69232 25.5013C10.8284 26.0462 11.9644 26.5911 13.1005 27.136" stroke="#313C62" stroke-width="1.35806" stroke-miterlimit="10" stroke-linecap="round" stroke-linejoin="round"/>
<path d="M15.7726 20.2607C16.075 21.5687 16.3774 22.8766 16.6798 24.1846" stroke="#313C62" stroke-width="1.35806" stroke-miterlimit="10" stroke-linecap="round" stroke-linejoin="round"/>
<path d="M60.7705 19.5887C62.1456 20.2695 63.2088 21.5526 63.6223 23.0302C64.0358 24.5078 63.793 26.1563 62.971 27.4519" stroke="#313C62" stroke-width="1.35806" stroke-miterlimit="10" stroke-linecap="round" stroke-linejoin="round"/>
<path d="M61.8382 29.6338C61.6311 29.8738 61.4239 30.1139 61.2167 30.354" stroke="#313C62" stroke-width="1.35806" stroke-miterlimit="10" stroke-linecap="round" stroke-linejoin="round"/>
</svg>
