<svg width="72" height="74" viewBox="0 0 72 74" fill="none" xmlns="http://www.w3.org/2000/svg">
<path d="M55.5008 54.4842C53.5317 54.81 51.4719 54.6281 49.5937 53.9617C49.4044 52.9772 49.0864 52.0154 48.7304 51.0763C49.359 51.5763 50.4647 50.7053 50.8812 50.0238C51.3128 49.3345 51.2977 48.4864 51.2371 47.6836C51.1311 46.3204 50.919 44.9724 50.5783 43.6623L50.7373 43.3291C51.7597 43.4957 52.7972 43.5563 53.8347 43.5108C53.35 43.8743 52.9107 44.412 52.7063 44.7454C52.214 45.5555 52.1762 46.5704 52.4034 47.4791C52.7214 48.7515 54.0846 49.6679 55.3872 49.4859C54.0391 50.4326 53.7438 52.5682 54.7737 53.8404C54.9858 54.098 55.2281 54.3101 55.5008 54.4842Z" stroke="#313C62" stroke-width="1.13596" stroke-miterlimit="10" stroke-linecap="round" stroke-linejoin="round"/>
<path d="M60.0825 42.5187C59.8477 42.5037 59.6054 42.4959 59.3706 42.4885C59.5826 42.4734 59.7871 42.4127 59.9689 42.3293C60.0067 42.39 60.0446 42.4582 60.0825 42.5187Z" stroke="#313C62" stroke-width="1.13596" stroke-miterlimit="10" stroke-linecap="round" stroke-linejoin="round"/>
<path d="M62.2484 48.0016C62.0363 48.0016 61.8243 48.0244 61.6198 48.0623C61.8243 48.0092 62.0288 47.9488 62.2408 47.8881C62.2484 47.926 62.2484 47.9639 62.2484 48.0016Z" stroke="#313C62" stroke-width="1.13596" stroke-miterlimit="10" stroke-linecap="round" stroke-linejoin="round"/>
<path d="M26.5565 69.4335C26.511 69.8879 26.4656 70.3423 26.2914 70.7588C25.9961 71.5009 25.269 71.9175 24.5193 72.0765C23.5576 72.2734 22.573 72.2961 21.6037 72.3492C20.0512 72.44 18.5063 72.5309 16.9538 72.6217C14.2124 72.7884 11.4709 72.9475 8.72188 73.1065C8.03275 73.1519 7.2527 73.1443 6.68472 72.6899C6.36666 72.4324 6.16976 71.9857 6.01829 71.6146C5.83654 71.1829 5.72292 70.736 5.66237 70.2742C5.64721 70.0924 5.64721 69.8804 5.7911 69.7743C5.92741 69.6759 6.11674 69.7138 6.27579 69.744C6.32881 69.7516 6.38182 69.7592 6.4348 69.7667C6.32123 70.1227 6.32123 70.4862 6.50297 70.8194C6.91948 71.5616 7.94941 71.607 8.80517 71.554C11.5466 71.395 14.2881 71.236 17.0371 71.0693C18.582 70.9784 20.1269 70.8875 21.6794 70.7967C22.6564 70.7436 23.6408 70.721 24.5951 70.5241C25.6477 70.3044 25.9279 70.0697 25.837 68.9791C25.8295 68.8958 25.8219 68.8201 25.8067 68.7368C26.0415 68.7823 26.2838 68.8125 26.5262 68.8277C26.5943 69.017 26.5716 69.229 26.5565 69.4335Z" fill="#313C62"/>
<path d="M24.595 70.5241C23.6408 70.721 22.6563 70.7436 21.6794 70.7967C20.1269 70.8876 18.582 70.9784 17.0371 71.0693C14.288 71.236 11.5466 71.395 8.80515 71.554C7.94939 71.6071 6.91946 71.5616 6.50295 70.8194C6.3212 70.4863 6.3212 70.1227 6.43477 69.7668C6.57866 69.2897 6.93462 68.8277 7.30569 68.4793C8.77487 67.0934 10.4712 66.3059 12.3191 65.5638C13.3717 65.1472 14.4547 64.761 15.5073 64.3293C17.4536 64.8139 19.6725 64.2763 20.9675 62.7617C20.9827 62.7617 21.0054 62.7541 21.0205 62.7617C21.0281 63.2767 21.1114 63.7992 21.2553 64.3065C21.6718 65.8287 22.6336 67.2601 23.9437 68.0325C24.5193 68.3733 25.1479 68.6081 25.8067 68.7368C25.8219 68.8201 25.8295 68.8958 25.837 68.9791C25.9279 70.0697 25.6477 70.3044 24.595 70.5241Z" stroke="#313C62" stroke-width="1.13596" stroke-miterlimit="10" stroke-linecap="round" stroke-linejoin="round"/>
<path d="M22.2434 70.4802C21.683 69.5715 21.6906 68.3446 22.2586 67.4434C22.3722 67.2617 22.5085 67.0951 22.66 66.9512" stroke="#313C62" stroke-width="1.13596" stroke-miterlimit="10" stroke-linecap="round" stroke-linejoin="round"/>
<path d="M57.3183 70.3498C57.2804 70.8118 57.1744 71.2662 57.0078 71.6978C56.8639 72.0689 56.6822 72.5233 56.3717 72.7884C55.8113 73.2579 55.0312 73.2882 54.3345 73.2655C51.5931 73.1746 48.844 73.0837 46.095 72.9929C44.5501 72.9475 42.9976 72.8944 41.4451 72.8414C40.4682 72.811 39.4837 72.8186 38.5219 72.6444C37.7722 72.5082 37.0301 72.1068 36.712 71.3798C36.5302 70.9632 36.4697 70.5089 36.4166 70.0621C36.3864 69.8121 36.356 69.5396 36.4848 69.3275C36.6438 69.0472 36.9089 69.0472 37.1664 69.1003C37.1512 69.2669 37.1361 69.4259 37.1285 69.585C37.0603 70.6756 37.3481 70.9027 38.4008 71.092C39.3701 71.2662 40.3546 71.2662 41.3316 71.2964C42.8764 71.3419 44.4289 71.395 45.9814 71.4479C48.7229 71.5312 51.4719 71.6222 54.2209 71.713C55.0691 71.7433 56.1066 71.6676 56.5004 70.9103C56.6746 70.5694 56.667 70.2059 56.5458 69.85C56.5913 69.85 56.6443 69.8349 56.6973 69.8273C56.8564 69.797 57.0457 69.7516 57.182 69.85C57.3335 69.9561 57.341 70.168 57.3183 70.3498Z" fill="#313C62"/>
<path d="M44.2281 63.5129C44.7961 63.6417 45.3413 63.8234 45.8563 64.0582C47.3634 64.7474 48.9916 65.2396 50.5516 65.8227C52.4222 66.5119 54.1337 67.254 55.6407 68.5945C56.0194 68.9277 56.3829 69.3821 56.5495 69.8516C56.6707 70.2075 56.6782 70.571 56.5041 70.9118C56.1103 71.6691 55.0728 71.7449 54.2246 71.7146C51.4755 71.6237 48.7265 71.5328 45.9851 71.4495C44.4326 71.3965 42.8801 71.3435 41.3352 71.2981C40.3583 71.2678 39.3738 71.2678 38.4044 71.0936C37.3518 70.9043 37.064 70.6771 37.1321 69.5865C37.1397 69.4275 37.1549 69.2685 37.17 69.1019C37.1927 68.9277 37.2079 68.7535 37.2382 68.5718" stroke="#313C62" stroke-width="1.13596" stroke-miterlimit="10" stroke-linecap="round" stroke-linejoin="round"/>
<path d="M40.8202 68.246C41.2519 69.0942 41.2367 70.1696 40.752 70.9951" stroke="#313C62" stroke-width="1.13596" stroke-miterlimit="10" stroke-linecap="round" stroke-linejoin="round"/>
<path d="M50.8811 50.0238C50.4646 50.7053 49.359 51.5763 48.7304 51.0763C49.2908 52.5531 49.7528 54.0904 49.7982 55.6733C49.8436 57.2483 49.4423 58.8842 48.4275 60.1035C47.4278 61.3152 45.7617 62.3602 44.2169 62.0043C44.3229 63.2008 44.2244 64.4353 43.77 65.541C43.3081 66.6466 42.4599 67.616 41.3542 68.0704C40.2486 68.5172 38.8778 68.502 37.9766 67.7068C37.0679 69.0548 35.4851 69.9183 33.8569 69.9636C32.2362 69.9939 30.805 69.4562 29.8432 68.1537C28.0256 69.1306 25.7158 69.0776 23.9437 68.0325C22.1792 66.995 21.0433 64.7609 21.0205 62.7087C19.5135 64.5186 16.7039 64.9806 14.5607 64.0036C12.4024 63.0267 10.9408 60.8306 10.5167 58.5132C10.085 56.1882 10.5621 54.0375 11.5693 51.9019C11.1831 52.6213 10.7666 53.3559 10.1456 53.8859C9.50944 54.4084 8.60824 54.6887 7.85851 54.3631C5.35941 53.2802 6.20001 47.676 6.47267 45.6314C6.80589 43.117 7.58589 40.8906 8.54011 38.6642C9.53218 38.3386 10.494 37.9599 11.433 37.5282C10.5091 39.6487 9.55487 41.7614 8.66884 43.9122C8.29776 44.7982 7.91911 45.7223 7.90395 46.6915C7.88883 47.6685 8.31292 48.7061 9.19138 49.1302C10.0093 49.5314 11.0165 49.3044 11.7738 48.7817C12.516 48.2592 13.0537 47.4943 13.5762 46.7522C12.6523 49.1831 12.2282 51.8033 12.3266 54.4162C12.3872 56.0595 12.6901 57.7559 13.6217 59.119C14.5455 60.4897 16.2419 61.4212 17.8626 61.0804C19.665 60.6941 20.1951 59.1947 20.9902 57.7255C21.5128 59.74 22.4746 61.6483 23.7923 63.2691C24.4966 64.1475 25.3826 64.973 26.4959 65.1699C27.6015 65.3744 28.9192 64.6851 29.0328 63.5643C29.9265 65.6166 32.577 66.677 34.6521 65.8363C37.4011 64.723 37.2193 61.55 37.6813 59.0811C38.1432 60.2323 38.787 61.5045 39.9835 61.7923C41.1876 62.0876 42.422 61.1713 42.9067 60.0354C43.4065 58.8994 43.3459 57.6044 43.2702 56.3699C43.4293 57.1803 44.444 57.6044 45.2089 57.3241C45.9814 57.0516 46.4812 56.2564 46.6327 55.4536C46.7841 54.6508 46.6629 53.8179 46.5342 53.0075C46.148 50.5539 45.7693 48.0926 45.3831 45.6314C45.7163 46.1766 46.0723 46.7294 46.5569 47.146C47.0492 47.5549 47.7156 47.8123 48.3442 47.6609C48.9803 47.4943 49.4574 46.9263 49.6846 46.3129C49.8967 45.6844 49.8891 45.0103 49.8512 44.344C49.7906 43.2988 49.6543 42.2614 49.4498 41.2314C49.6089 41.8827 49.9724 42.4431 50.404 42.9732C50.8357 44.503 51.1159 46.0858 51.2371 47.6836C51.2977 48.4864 51.3128 49.3345 50.8811 50.0238Z" fill="#ED145B"/>
<path d="M50.8811 50.0237C50.4646 50.7052 49.359 51.5762 48.7304 51.0763C49.0863 52.0154 49.4044 52.9772 49.5937 53.9617C49.7073 54.5221 49.783 55.0977 49.7982 55.6732C49.8436 57.2483 49.4423 58.8842 48.4275 60.1034C47.4278 61.3151 45.7617 62.3602 44.2168 62.0043C44.3229 63.2008 44.2244 64.4352 43.77 65.541C43.3081 66.6466 42.4599 67.616 41.3542 68.0703C40.2486 68.5171 38.8778 68.502 37.9766 67.7067C37.0679 69.0548 35.4851 69.9182 33.8569 69.9636C32.2362 69.9938 30.805 69.4562 29.8432 68.1536C28.7375 68.7519 27.4501 68.964 26.2081 68.7973C26.0718 68.7822 25.943 68.7595 25.8143 68.7368C25.678 68.714 25.5492 68.6837 25.4205 68.6458C25.3372 68.6232 25.2463 68.6004 25.163 68.5702C24.9737 68.5171 24.7919 68.449 24.6101 68.3657C24.5042 68.3202 24.3981 68.2747 24.2997 68.2218C24.1785 68.1612 24.0573 68.1006 23.9437 68.0324C23.8301 67.9643 23.7241 67.8961 23.6181 67.8205C23.5272 67.7598 23.4363 67.6917 23.3455 67.616C22.9365 67.2827 22.5655 66.8814 22.2474 66.4345C22.1414 66.2755 22.0429 66.1165 21.9445 65.9498C21.846 65.7832 21.7551 65.6015 21.6643 65.4198C21.6567 65.4122 21.6567 65.4046 21.6491 65.3894C21.5734 65.2228 21.5052 65.0486 21.437 64.8744C21.3689 64.6851 21.3083 64.4958 21.2553 64.3064C21.1493 63.9202 21.0735 63.534 21.0433 63.1478C21.0357 63.057 21.0281 62.9585 21.0281 62.8676C21.0205 62.8146 21.0205 62.7616 21.0205 62.7086C21.0054 62.7238 20.9902 62.7464 20.9675 62.7616C20.8464 62.9055 20.7176 63.0342 20.5813 63.1629C19.4302 64.2081 17.7793 64.6549 16.2116 64.458C16.1056 64.4428 15.992 64.4277 15.886 64.4126C15.6285 64.3671 15.371 64.3064 15.1211 64.2232C15.0227 64.1929 14.9318 64.155 14.8409 64.1171C14.7425 64.0869 14.6516 64.0415 14.5607 64.0036C12.4024 63.0266 10.9408 60.8305 10.5167 58.5131C10.085 56.1881 10.5621 54.0375 11.5693 51.9018C11.1831 52.6212 10.7666 53.3558 10.1456 53.8859C9.50944 54.4084 8.60824 54.6887 7.85851 54.3631C5.35941 53.2802 6.20001 47.676 6.47267 45.6313C6.80589 43.117 7.58589 40.8906 8.54011 38.6641C12.3569 37.4069 15.7648 35.4228 18.8471 32.704C19.3923 32.2194 19.9376 31.7121 20.498 31.2273C20.3086 31.7195 20.3011 32.2571 20.551 32.863C20.8539 33.575 21.5809 34.0066 22.3004 34.302C24.1785 35.0821 26.2914 35.279 28.2831 34.8776C29.2222 34.6807 30.184 34.3248 30.7595 33.5523C31.1685 33.0144 31.335 32.3254 31.3048 31.6514C31.2745 30.9849 31.0473 30.3337 30.7368 29.7354C30.6686 29.6066 30.5929 29.4703 30.502 29.3416C30.8201 29.4402 31.1306 29.5461 31.4411 29.6445C36.3484 31.2576 41.2558 32.8706 46.1631 34.4913C46.4585 34.8548 46.7387 35.2259 47.0037 35.6197C48.5108 37.8689 49.6771 40.3681 50.404 42.9731C50.4646 43.2004 50.5328 43.4274 50.5783 43.6622C50.919 44.9724 51.1311 46.3204 51.2371 47.6836C51.2977 48.4864 51.3128 49.3345 50.8811 50.0237Z" stroke="#313C62" stroke-width="1.13596" stroke-miterlimit="10" stroke-linecap="round" stroke-linejoin="round"/>
<path d="M11.4687 52.314C11.7345 50.6074 12.2826 48.9451 13.084 47.4151" stroke="#313C62" stroke-width="1.13596" stroke-miterlimit="10" stroke-linecap="round" stroke-linejoin="round"/>
<path d="M20.8677 62.8612C20.3106 61.1922 20.0365 59.4292 20.0606 57.6698" stroke="#313C62" stroke-width="1.13596" stroke-miterlimit="10" stroke-linecap="round" stroke-linejoin="round"/>
<path d="M48.7264 51.2067C48.066 49.4426 47.1044 47.7916 45.8957 46.3469" stroke="#313C62" stroke-width="1.13596" stroke-miterlimit="10" stroke-linecap="round" stroke-linejoin="round"/>
<path d="M44.2194 62.2346C44.3549 60.428 44.142 58.5958 43.5956 56.8685" stroke="#313C62" stroke-width="1.13596" stroke-miterlimit="10" stroke-linecap="round" stroke-linejoin="round"/>
<path d="M37.1079 67.9389C38.1514 65.4388 38.4186 62.621 37.8638 59.9692" stroke="#313C62" stroke-width="1.13596" stroke-miterlimit="10" stroke-linecap="round" stroke-linejoin="round"/>
<path d="M7.2033 19.1423C7.77886 18.4759 8.27868 17.7488 8.86181 17.0824C9.64941 16.1812 10.6491 15.3709 11.8305 15.2043C13.6101 14.9695 14.7991 16.522 13.9736 18.0896C12.9285 20.0738 12.1712 22.3003 11.3609 24.398C9.67213 28.7904 8.15751 33.2661 7.21088 37.8857C7.12757 38.3022 7.05184 38.7187 6.97611 39.1352C7.50623 38.9913 8.02877 38.8399 8.54374 38.6657C9.53581 38.34 10.4976 37.9614 11.4367 37.5297C14.1099 36.3256 16.5712 34.7201 18.8507 32.7057C19.396 32.221 19.9412 31.7136 20.5016 31.2289C20.5395 31.138 20.5774 31.0472 20.6304 30.9639C20.6607 30.9109 20.691 30.8503 20.7364 30.7973C20.7515 30.7594 20.7818 30.7215 20.8121 30.6837C21.0014 30.4262 21.2362 30.1838 21.5164 29.9718C21.5846 29.9112 21.6603 29.8506 21.7436 29.7976C21.8345 29.7295 21.9405 29.6613 22.039 29.6007C22.1374 29.5326 22.2434 29.472 22.3495 29.4114C22.5615 29.2902 22.7887 29.1766 23.0159 29.0706C23.1825 28.9873 23.3567 28.9116 23.5233 28.851C23.652 28.7904 23.7883 28.745 23.9247 28.6919C24.0913 28.6314 24.2579 28.5708 24.4169 28.5178C24.5154 28.4875 24.6062 28.4572 24.6971 28.4269C24.8107 28.389 24.9167 28.3587 25.0227 28.3284C25.0606 28.3209 25.0833 28.3133 25.1136 28.2981H25.1212C25.8482 28.0937 26.4995 27.9649 26.9615 27.9043C27.5673 27.8286 28.1959 27.7907 28.7941 27.9574C29.0592 28.0331 29.3015 28.1543 29.5287 28.3133C29.7408 28.4572 29.9301 28.6314 30.0967 28.8207C30.1573 28.8813 30.2027 28.9419 30.2557 29.0024C30.3466 29.1085 30.4299 29.2296 30.5057 29.3432C30.8237 29.4417 31.1342 29.5477 31.4447 29.6462C36.3521 31.2592 41.2594 32.8723 46.1668 34.4929L48.3024 35.1972C45.0611 27.5408 40.8353 20.0435 36.5035 12.9551C34.5951 9.83499 32.5049 6.69216 29.4757 4.655C24.6668 1.41373 17.9874 1.58791 12.974 4.51111C8.24839 7.26771 5.01469 12.1826 3.68182 17.4914" fill="#FDE8EF"/>
<path d="M7.2033 19.1423C7.77886 18.4759 8.27868 17.7488 8.86181 17.0824C9.64941 16.1812 10.6491 15.3709 11.8305 15.2043C13.6101 14.9695 14.7991 16.522 13.9736 18.0896C12.9285 20.0738 12.1712 22.3003 11.3609 24.398C9.67213 28.7904 8.15751 33.2661 7.21088 37.8857C7.12757 38.3022 7.05184 38.7187 6.97611 39.1352C7.50623 38.9913 8.02877 38.8399 8.54374 38.6657C9.53581 38.34 10.4976 37.9614 11.4367 37.5297C14.1099 36.3256 16.5712 34.7201 18.8507 32.7057C19.396 32.221 19.9412 31.7136 20.5016 31.2289C20.5395 31.138 20.5774 31.0472 20.6304 30.9639C20.6607 30.9109 20.691 30.8503 20.7364 30.7973C20.7515 30.7594 20.7818 30.7215 20.8121 30.6837C21.0014 30.4262 21.2362 30.1838 21.5164 29.9718C21.5846 29.9112 21.6603 29.8506 21.7436 29.7976C21.8345 29.7295 21.9405 29.6613 22.039 29.6007C22.1374 29.5326 22.2434 29.472 22.3495 29.4114C22.5615 29.2902 22.7887 29.1766 23.0159 29.0706C23.1825 28.9873 23.3567 28.9116 23.5233 28.851C23.652 28.7904 23.7883 28.745 23.9247 28.6919C24.0913 28.6314 24.2579 28.5708 24.4169 28.5178C24.5154 28.4875 24.6062 28.4572 24.6971 28.4269C24.8107 28.389 24.9167 28.3587 25.0227 28.3284C25.0606 28.3209 25.0833 28.3133 25.1136 28.2981H25.1212C25.8482 28.0937 26.4995 27.9649 26.9615 27.9043C27.5673 27.8286 28.1959 27.7907 28.7941 27.9574C29.0592 28.0331 29.3015 28.1543 29.5287 28.3133C29.7408 28.4572 29.9301 28.6314 30.0967 28.8207C30.1573 28.8813 30.2027 28.9419 30.2557 29.0024C30.3466 29.1085 30.4299 29.2296 30.5057 29.3432C30.8237 29.4417 31.1342 29.5477 31.4447 29.6461C36.3521 31.2592 41.2594 32.8723 46.1668 34.4929L48.3024 35.1972C45.0611 27.5408 40.8353 20.0435 36.5035 12.9551C34.5951 9.83499 32.5049 6.69216 29.4757 4.655C24.6668 1.41373 17.9874 1.58791 12.974 4.51111C8.24839 7.26771 5.01469 12.1826 3.68182 17.4914" stroke="#313C62" stroke-width="1.13596" stroke-miterlimit="10" stroke-linecap="round" stroke-linejoin="round"/>
<path d="M31.3048 31.6515C31.3351 32.3254 31.1685 33.0145 30.7595 33.5523C30.184 34.3248 29.2222 34.6807 28.2831 34.8776C26.2914 35.279 24.1785 35.0821 22.3004 34.302C21.5809 34.0066 20.854 33.5751 20.551 32.863C20.3011 32.2572 20.3087 31.7195 20.498 31.2273C21.0811 29.7734 23.3076 28.8116 25.1176 28.2965C25.8446 28.092 26.4959 27.9633 26.9579 27.9026C27.5637 27.827 28.1923 27.7891 28.7905 27.9557C29.0556 28.0315 29.2979 28.1526 29.5251 28.3116C29.9113 28.5843 30.2445 28.9478 30.502 29.3416C30.5929 29.4703 30.6686 29.6066 30.7368 29.7355C31.0473 30.3338 31.2745 30.9849 31.3048 31.6515Z" stroke="#313C62" stroke-width="1.13596" stroke-miterlimit="10" stroke-linecap="round" stroke-linejoin="round"/>
<path d="M17.8721 37.7352C17.0813 39.3239 16.5777 41.055 16.3928 42.8201C16.2988 43.7176 16.4299 44.852 17.2761 45.1658C17.7508 45.3418 18.2987 45.1661 18.6926 44.848C19.0865 44.5299 19.3575 44.0882 19.6207 43.6556C19.8591 44.6826 20.1085 45.7354 20.6976 46.6097C21.2867 47.4841 22.2991 48.1545 23.3462 48.0321C24.328 47.9173 25.1276 47.1317 25.5383 46.2327C25.949 45.3336 26.0401 44.3266 26.1256 43.3418" stroke="#313C62" stroke-width="1.13596" stroke-miterlimit="10" stroke-linecap="round" stroke-linejoin="round"/>
<path d="M34.6815 46.4913C35.2333 47.1705 35.809 47.8692 36.5903 48.2632C37.3716 48.6573 38.4208 48.662 39.0324 48.0362C39.5828 47.4731 39.6043 46.4871 39.1016 45.8809C40.0905 46.1129 41.169 45.535 41.65 44.6404C42.131 43.7458 42.0585 42.6159 41.5979 41.7106C41.1372 40.8054 40.3279 40.1116 39.4269 39.6427" stroke="#313C62" stroke-width="1.13596" stroke-miterlimit="10" stroke-linecap="round" stroke-linejoin="round"/>
<path d="M4.15671 24.634C6.13871 24.634 7.74543 23.0273 7.74543 21.0453C7.74543 19.0633 6.13871 17.4565 4.15671 17.4565C2.17472 17.4565 0.567993 19.0633 0.567993 21.0453C0.567993 23.0273 2.17472 24.634 4.15671 24.634Z" fill="#E4E4E4"/>
<path d="M4.15671 24.634C6.13871 24.634 7.74543 23.0273 7.74543 21.0453C7.74543 19.0633 6.13871 17.4565 4.15671 17.4565C2.17472 17.4565 0.567993 19.0633 0.567993 21.0453C0.567993 23.0273 2.17472 24.634 4.15671 24.634Z" stroke="#313C62" stroke-width="1.13596" stroke-miterlimit="10" stroke-linecap="round" stroke-linejoin="round"/>
<path d="M15.4253 15.4992C15.9884 14.3943 16.3626 13.1935 16.527 11.9643C16.5847 11.5327 16.6165 11.0921 16.5398 10.6635C16.463 10.2348 16.2685 9.81554 15.9358 9.53468C15.4974 9.16462 14.8622 9.08101 14.3092 9.23371C13.8831 9.35136 13.5223 9.59389 13.1938 9.88237C12.872 10.1649 12.5398 10.3592 12.394 10.7986C12.297 11.0908 12.3487 11.4547 12.5949 11.6397C12.8318 11.8177 13.1708 11.7807 13.4421 11.6615C13.7134 11.5423 13.9491 11.3529 14.2198 11.2324C14.4906 11.1119 14.8284 11.0715 15.0679 11.246C15.3298 11.4369 15.3781 11.8031 15.3876 12.127C15.4284 13.5307 15.156 14.9427 14.5958 16.2304C14.5891 16.2458 14.8606 16.0981 14.8945 16.0637C14.9994 15.9573 15.094 15.8423 15.1831 15.7224C15.3787 15.4595 15.5436 15.1737 15.6725 14.8725" fill="#E4E4E4"/>
<path d="M14.1005 17.795C15.173 16.4099 15.9508 14.4942 16.4738 12.8224C16.6545 12.2447 16.8009 11.6419 16.7444 11.0394C16.6879 10.4368 16.3979 9.82885 15.8766 9.52134C15.3177 9.19166 14.5893 9.26477 14.0123 9.56167C13.4354 9.85857 12.9836 10.3489 12.5743 10.8523" stroke="#313C62" stroke-width="1.13596" stroke-miterlimit="10" stroke-linecap="round" stroke-linejoin="round"/>
<path d="M31.5449 11.838C34.5879 15.671 37.1028 19.9227 38.9966 24.4356" stroke="#313C62" stroke-width="1.13596" stroke-miterlimit="10" stroke-linecap="round" stroke-linejoin="round"/>
<path d="M39.7888 26.3815C39.9953 26.8022 40.2017 27.223 40.4082 27.6437" stroke="#313C62" stroke-width="1.13596" stroke-miterlimit="10" stroke-linecap="round" stroke-linejoin="round"/>
<path d="M62.7594 9.85012C62.9942 9.92586 63.2214 10.0167 63.4486 10.1228C63.8348 10.2894 64.2134 10.4787 64.5769 10.6907C64.6981 10.7513 64.8117 10.8271 64.9329 10.8952C65.0919 10.9937 65.2509 11.0921 65.4024 11.1981C66.4021 11.8721 67.3108 12.6597 68.1741 13.5003C68.2423 13.5079 68.318 13.5155 68.3938 13.5079C68.8027 13.4776 69.1056 13.099 69.1889 12.7052C69.2798 12.3038 69.1965 11.8949 69.1132 11.5011C69.0148 11.0315 68.9163 10.562 68.727 10.1228C68.5377 9.68352 68.2423 9.27457 67.8334 9.03223C67.3335 8.72931 66.7277 8.70659 66.1446 8.69144C65.0616 8.6763 63.9787 8.70659 62.8957 8.77475" stroke="#313C62" stroke-width="1.13596" stroke-miterlimit="10" stroke-linecap="round" stroke-linejoin="round"/>
<path d="M61.9112 10.9406C61.9415 11.0315 61.9718 11.1148 61.9945 11.2057C62.04 11.3344 62.0778 11.4556 62.1157 11.5843C63.4107 13.2353 64.1756 15.3254 65.4403 17.0369C65.8341 17.5746 66.296 18.0896 66.864 18.4607C67.4244 18.8242 68.106 19.0514 68.7724 18.9757C69.4464 18.9075 70.0977 18.5137 70.3931 17.9079C70.6884 17.2944 70.5824 16.5447 70.2795 15.9313C69.9841 15.3179 69.4994 14.818 69.0223 14.3334C68.7421 14.0532 68.4619 13.773 68.1742 13.5003C67.3108 12.6597 66.4021 11.8721 65.4024 11.1981C64.5845 10.6453 63.6909 10.1757 62.7594 9.8501" fill="#FDE8EF"/>
<path d="M61.9112 10.9406C61.9415 11.0315 61.9718 11.1148 61.9945 11.2057C62.04 11.3344 62.0778 11.4556 62.1157 11.5843C63.4107 13.2353 64.1756 15.3254 65.4403 17.0369C65.8341 17.5746 66.296 18.0896 66.864 18.4607C67.4244 18.8242 68.106 19.0514 68.7724 18.9757C69.4464 18.9075 70.0977 18.5137 70.3931 17.9079C70.6884 17.2944 70.5824 16.5447 70.2795 15.9313C69.9841 15.3179 69.4994 14.818 69.0223 14.3334C68.7421 14.0532 68.4619 13.773 68.1742 13.5003C67.3108 12.6597 66.4021 11.8721 65.4024 11.1981C64.5845 10.6453 63.6909 10.1757 62.7594 9.8501" stroke="#313C62" stroke-width="1.13596" stroke-miterlimit="10" stroke-linecap="round" stroke-linejoin="round"/>
<path d="M55.6407 6.45735C54.5653 5.10935 53.6262 3.64017 52.3161 2.5345C52.1949 2.43605 52.0738 2.3376 51.945 2.23915C52.0359 2.13313 52.1343 2.03468 52.2252 1.95895C52.6342 1.61816 53.187 1.4667 53.7095 1.54243C54.3078 1.64088 54.8304 2.01953 55.2166 2.48906C55.6028 2.95102 55.8754 3.50385 56.1329 4.04912C56.3753 4.54894 56.6176 5.05633 56.8599 5.55616" fill="#FDE8EF"/>
<path d="M55.6407 6.45735C54.5653 5.10935 53.6262 3.64017 52.3161 2.5345C52.1949 2.43605 52.0738 2.3376 51.945 2.23915C52.0359 2.13313 52.1343 2.03468 52.2252 1.95895C52.6342 1.61816 53.187 1.4667 53.7095 1.54243C54.3078 1.64088 54.8304 2.01953 55.2166 2.48906C55.6028 2.95102 55.8754 3.50385 56.1329 4.04912C56.3753 4.54894 56.6176 5.05633 56.8599 5.55616" stroke="#313C62" stroke-width="1.13596" stroke-miterlimit="10" stroke-linecap="round" stroke-linejoin="round"/>
<path d="M61.9036 10.9483C61.9869 11.1603 62.0551 11.3724 62.1157 11.5844C62.926 14.129 63.4485 16.7644 63.6682 19.4226C63.7288 20.1875 63.7666 20.9751 63.5091 21.6945C63.2441 22.4215 62.6231 23.0577 61.8506 23.1107C61.2296 23.1485 60.6314 22.785 60.23 22.3079C59.5333 21.4749 59.0259 20.2405 58.7684 19.1954C58.473 18.014 58.3897 16.7947 58.4427 15.5755C58.4806 14.803 58.5715 14.0381 58.7002 13.2732" fill="#FDE8EF"/>
<path d="M61.9036 10.9483C61.9869 11.1603 62.0551 11.3724 62.1157 11.5844C62.926 14.129 63.4485 16.7644 63.6682 19.4226C63.7288 20.1875 63.7666 20.9751 63.5091 21.6945C63.2441 22.4215 62.6231 23.0577 61.8506 23.1107C61.2296 23.1485 60.6314 22.785 60.23 22.3079C59.5333 21.4749 59.0259 20.2405 58.7684 19.1954C58.473 18.014 58.3897 16.7947 58.4427 15.5755C58.4806 14.803 58.5715 14.0381 58.7002 13.2732" stroke="#313C62" stroke-width="1.13596" stroke-miterlimit="10" stroke-linecap="round" stroke-linejoin="round"/>
<path d="M55.6407 6.45741C55.5953 6.39683 55.5423 6.33624 55.4968 6.27566C55.3529 6.0939 55.2166 5.91215 55.0803 5.7304C54.5351 5.01095 53.9974 4.28394 53.4067 3.60994C53.2779 3.46605 53.1416 3.32216 53.0053 3.18584C52.922 3.09497 52.8311 3.00409 52.7402 2.92079C52.6039 2.78447 52.46 2.65573 52.3161 2.53456C52.195 2.43611 52.0738 2.33766 51.9451 2.23921C50.9378 1.4819 49.764 0.951787 48.522 0.701875C47.4845 0.497402 46.3713 0.489829 45.4171 0.944213C44.7809 1.23956 44.2357 1.76968 43.9555 2.42096C43.6374 3.13283 43.6677 3.77654 44.0691 4.45055C44.4932 5.16242 45.1747 5.7001 45.9093 6.0939C47.6436 7.00267 49.6656 7.1087 51.6194 7.24501C52.1344 7.2753 52.6645 7.32074 53.187 7.38133C53.9671 7.34346 54.7471 7.34346 55.5347 7.3889" fill="#FDE8EF"/>
<path d="M55.6407 6.45741C55.5953 6.39683 55.5423 6.33624 55.4968 6.27566C55.3529 6.0939 55.2166 5.91215 55.0803 5.7304C54.5351 5.01095 53.9974 4.28394 53.4067 3.60994C53.2779 3.46605 53.1416 3.32216 53.0053 3.18584C52.922 3.09497 52.8311 3.00409 52.7402 2.92079C52.6039 2.78447 52.46 2.65573 52.3161 2.53456C52.195 2.43611 52.0738 2.33766 51.9451 2.23921C50.9378 1.4819 49.764 0.951787 48.522 0.701875C47.4845 0.497402 46.3713 0.489829 45.4171 0.944213C44.7809 1.23956 44.2357 1.76968 43.9555 2.42096C43.6374 3.13283 43.6677 3.77654 44.0691 4.45055C44.4932 5.16242 45.1747 5.7001 45.9093 6.0939C47.6436 7.00267 49.6656 7.1087 51.6194 7.24501C52.1344 7.2753 52.6645 7.32074 53.187 7.38133C53.9671 7.34346 54.7471 7.34346 55.5347 7.3889" stroke="#313C62" stroke-width="1.13596" stroke-miterlimit="10" stroke-linecap="round" stroke-linejoin="round"/>
<path d="M57.2502 8.64433C57.2426 8.63675 57.2274 8.62917 57.2198 8.62917C57.2274 8.62917 57.235 8.6142 57.235 8.6142L57.2502 8.64433Z" stroke="#313C62" stroke-width="1.13596" stroke-miterlimit="10" stroke-linecap="round" stroke-linejoin="round"/>
<path d="M55.5271 7.38131C55.3832 7.37373 55.2394 7.36616 55.0955 7.36616C54.8758 7.35859 54.6486 7.35101 54.429 7.35101C54.0125 7.35101 53.6036 7.35859 53.187 7.38131C50.7637 7.47976 48.363 7.90385 46.0684 8.66115C45.3338 8.90349 44.6068 9.17612 43.9782 9.63808C43.3572 10.0925 42.8574 10.7513 42.7286 11.5162C42.6226 12.2054 42.8649 13.0081 43.4329 13.4246C44.0312 13.8563 44.7809 14.0532 45.5155 14.0608C46.4622 14.0759 47.3861 13.8108 48.2797 13.5004C51.3922 12.4325 54.323 10.8573 56.9281 8.85805" fill="#FDE8EF"/>
<path d="M55.5271 7.38131C55.3832 7.37373 55.2394 7.36616 55.0955 7.36616C54.8758 7.35859 54.6486 7.35101 54.429 7.35101C54.0125 7.35101 53.6036 7.35859 53.187 7.38131C50.7637 7.47976 48.363 7.90385 46.0684 8.66115C45.3338 8.90349 44.6068 9.17612 43.9782 9.63808C43.3572 10.0925 42.8574 10.7513 42.7286 11.5162C42.6226 12.2054 42.8649 13.0081 43.4329 13.4246C44.0312 13.8563 44.7809 14.0532 45.5155 14.0608C46.4622 14.0759 47.3861 13.8108 48.2797 13.5004C51.3922 12.4325 54.323 10.8573 56.9281 8.85805" stroke="#313C62" stroke-width="1.13596" stroke-miterlimit="10" stroke-linecap="round" stroke-linejoin="round"/>
<path d="M57.4849 8.42485C57.4016 8.49289 57.3183 8.55353 57.235 8.61418L56.7503 7.74316L57.4849 8.42485Z" stroke="#313C62" stroke-width="1.13596" stroke-miterlimit="10" stroke-linecap="round" stroke-linejoin="round"/>
<path d="M59.7301 10.6832C58.6548 13.7124 57.1629 16.5826 55.315 19.2181C54.6638 20.1571 53.9292 21.0962 52.9295 21.649C51.9223 22.2094 50.5894 22.3003 49.6807 21.596C48.8476 20.9447 48.575 19.7709 48.681 18.7182C48.8022 17.4535 49.3853 16.2646 50.1426 15.2498C50.9075 14.2274 51.839 13.3489 52.7705 12.4856C53.7626 11.5617 54.7395 10.6454 55.724 9.72901L55.7316 9.72144" fill="#FDE8EF"/>
<path d="M59.7301 10.6832C58.6548 13.7124 57.1629 16.5826 55.315 19.2181C54.6638 20.1571 53.9292 21.0962 52.9295 21.649C51.9223 22.2094 50.5894 22.3003 49.6807 21.596C48.8476 20.9447 48.575 19.7709 48.681 18.7182C48.8022 17.4535 49.3853 16.2646 50.1426 15.2498C50.9075 14.2274 51.839 13.3489 52.7705 12.4856C53.7626 11.5617 54.7395 10.6454 55.724 9.72901L55.7316 9.72144" stroke="#313C62" stroke-width="1.13596" stroke-miterlimit="10" stroke-linecap="round" stroke-linejoin="round"/>
<path d="M59.9435 10.7826C60.5423 11.0399 61.2337 11.2433 61.8326 10.986C62.3459 10.7656 62.6771 10.2405 62.8069 9.69716C62.9366 9.15379 62.8951 8.58604 62.8528 8.029C62.7688 6.92403 62.6259 5.69723 61.7835 4.9772C61.1383 4.42564 60.2068 4.31265 59.3745 4.47948C58.5422 4.64632 57.7826 5.0583 57.0374 5.46493C56.5225 5.7459 55.5864 6.2148 55.4328 6.84833C55.299 7.4002 56.009 7.95934 56.3517 8.31077C57.3728 9.35784 58.5994 10.2051 59.9435 10.7826Z" fill="#E4E4E4"/>
<path d="M59.9435 10.7826C60.5423 11.0399 61.2337 11.2433 61.8326 10.986C62.3459 10.7656 62.6771 10.2405 62.8069 9.69716C62.9366 9.15379 62.8951 8.58604 62.8528 8.029C62.7688 6.92403 62.6259 5.69723 61.7835 4.9772C61.1383 4.42564 60.2068 4.31265 59.3745 4.47948C58.5422 4.64632 57.7826 5.0583 57.0374 5.46493C56.5225 5.7459 55.5864 6.2148 55.4328 6.84833C55.299 7.4002 56.009 7.95934 56.3517 8.31077C57.3728 9.35784 58.5994 10.2051 59.9435 10.7826Z" stroke="#313C62" stroke-width="1.13596" stroke-miterlimit="10" stroke-linecap="round" stroke-linejoin="round"/>
<path d="M59.3706 59.0735C58.8632 57.8239 58.3936 56.5592 57.9695 55.2794" stroke="#313C62" stroke-width="1.13596" stroke-miterlimit="10" stroke-linecap="round" stroke-linejoin="round"/>
<path d="M54.7586 38.4823C54.3042 30.7275 55.7245 22.6592 58.0343 15.2452" stroke="#313C62" stroke-width="1.13596" stroke-miterlimit="10" stroke-linecap="round" stroke-linejoin="round"/>
<path d="M63.3237 53.8859C61.7788 54.9614 59.8477 55.4611 57.9695 55.2794C57.8787 55.2718 57.7802 55.2642 57.6893 55.2491C56.9169 55.1507 56.1369 54.9159 55.5008 54.4842C55.2281 54.31 54.9858 54.0979 54.7737 53.8404C53.7438 52.5682 54.0391 50.4325 55.3871 49.4859C54.0846 49.6678 52.7214 48.7515 52.4034 47.4791C52.1762 46.5704 52.214 45.5555 52.7063 44.7453C52.9107 44.412 53.35 43.8743 53.8347 43.5108C54.1451 43.276 54.4632 43.117 54.7586 43.117C54.1755 43.0414 53.5923 42.9125 53.0925 42.6097C52.5699 42.2992 52.1383 41.7841 52.0474 41.1784C51.8505 39.9136 53.1758 39.02 54.1906 38.6565C54.3799 38.5883 54.5692 38.5352 54.7586 38.4824C55.7582 38.2172 56.8412 38.1414 57.856 38.2779C59.0601 38.4369 60.9306 38.9215 61.1124 40.3605C61.2184 41.1633 60.7035 41.981 59.9688 42.3294C59.7871 42.4127 59.5826 42.4734 59.3706 42.4885C59.6054 42.4959 59.8477 42.5037 60.0825 42.5187C60.6883 42.549 61.2941 42.6097 61.8849 42.7687C62.7027 42.9883 63.4903 43.4049 63.9977 44.0788C64.4975 44.7527 64.6793 45.7145 64.3007 46.4644C63.9144 47.2369 63.0889 47.6229 62.2408 47.8881C62.0287 47.9487 61.8243 48.0092 61.6198 48.0622C61.8243 48.0243 62.0363 48.0016 62.2483 48.0016C62.9678 48.0016 63.6873 48.244 64.2477 48.6909C66.2999 50.3038 65.1109 52.644 63.3237 53.8859Z" stroke="#313C62" stroke-width="1.13596" stroke-miterlimit="10" stroke-linecap="round" stroke-linejoin="round"/>
<path d="M54.6825 42.9655C56.2222 43.1172 57.7888 42.9912 59.2845 42.5953" stroke="#313C62" stroke-width="1.13596" stroke-miterlimit="10" stroke-linecap="round" stroke-linejoin="round"/>
<path d="M55.3915 49.3725C56.9054 49.2652 58.3951 48.9451 59.8789 48.6258C60.5319 48.4853 61.1849 48.3448 61.8379 48.2043" stroke="#313C62" stroke-width="1.13596" stroke-miterlimit="10" stroke-linecap="round" stroke-linejoin="round"/>
<path d="M2.97971 6.76367C3.97554 6.87547 4.95299 7.1495 5.86181 7.57168" stroke="#313C62" stroke-width="1.13596" stroke-miterlimit="10" stroke-linecap="round" stroke-linejoin="round"/>
<path d="M6.12866 3.20831C6.42653 3.91773 6.72439 4.62715 7.02226 5.33657" stroke="#313C62" stroke-width="1.13596" stroke-miterlimit="10" stroke-linecap="round" stroke-linejoin="round"/>
</svg>
