<svg width="65" height="80" viewBox="0 0 65 80" fill="none" xmlns="http://www.w3.org/2000/svg">
<path d="M26.637 63.3575C27.1357 62.8261 27.7407 62.3928 28.3539 61.984C27.847 61.9513 27.3564 61.7714 26.9313 61.4853" stroke="#313C62" stroke-width="1.22636" stroke-miterlimit="10" stroke-linecap="round" stroke-linejoin="round"/>
<path d="M25.7622 57.8716C26.171 56.8905 27.0785 56.1057 28.1332 55.9585C28.9426 55.844 29.7029 56.1384 30.3161 56.6371C30.9865 57.1849 31.4771 57.9779 31.6896 58.771C31.8204 57.8144 31.616 56.866 31.8286 55.8931C32.1148 54.585 33.0958 53.3259 34.4285 53.1624C35.8756 52.9825 37.2491 54.2252 37.5271 55.656C37.7969 57.0868 37.151 58.5829 36.1536 59.6458C37.4535 59.2288 38.917 59.0816 40.1597 59.6458C40.9854 60.03 41.664 60.7985 41.9011 61.6652" stroke="#313C62" stroke-width="1.22636" stroke-miterlimit="10" stroke-linecap="round" stroke-linejoin="round"/>
<path d="M31.1909 65.516C31.3305 65.516 37.5501 65.516 37.2982 65.516" stroke="#313C62" stroke-width="1.22636" stroke-miterlimit="10" stroke-linecap="round" stroke-linejoin="round"/>
<path d="M33.7656 63.3766C34.8343 63.3766 35.7006 62.5103 35.7006 61.4417C35.7006 60.373 34.8343 59.5067 33.7656 59.5067C32.697 59.5067 31.8307 60.373 31.8307 61.4417C31.8307 62.5103 32.697 63.3766 33.7656 63.3766Z" fill="#313C62"/>
<path d="M52.4997 6.26567C49.442 3.73939 45.1742 2.74198 41.3153 3.65756C37.4563 4.56515 34.0798 7.36938 32.4773 10.9912C30.7522 9.09445 29.1906 7.19772 27.0241 5.75878C24.8003 4.27892 22.2168 3.26514 19.5515 3.24059C14.9976 3.19158 10.7135 6.16757 8.57145 10.1818C6.42941 14.2043 6.26589 19.0853 7.47588 23.4755C8.67774 27.866 11.1631 31.8149 14.0655 35.3222C16.8698 38.7234 20.1074 41.7648 23.6638 44.3728C25.4135 45.6483 27.2448 46.8255 29.1334 47.8884C29.9183 48.3299 30.7931 49.0738 31.6842 48.9839C32.5754 48.894 33.5892 48.0191 34.2842 47.5204C40.1952 43.3836 46.1881 39.1648 50.7174 33.5563C56.6121 26.2554 61.1415 13.3949 52.4997 6.26567ZM52.2218 17.213C52.0991 17.6136 51.7475 17.9406 51.3388 18.0388C51.1016 18.0959 50.84 18.0797 50.652 17.9324C50.4231 17.7362 50.3903 17.401 50.4067 17.1067C50.4231 16.7469 50.4721 15.815 50.8319 15.6106C51.167 15.4144 51.772 15.7741 51.9764 16.0194C52.2544 16.3381 52.3525 16.8042 52.2218 17.213ZM52.5079 12.9371C52.2708 13.5585 51.584 14.0489 50.9545 13.8445C50.4803 13.6892 50.186 13.2069 50.0388 12.7245C49.8916 12.2503 49.8262 11.7435 49.5973 11.2938C49.254 10.6315 48.5754 10.2145 47.9049 9.87939C46.7767 9.30702 44.3648 7.90082 45.6157 6.29012C46.654 4.95757 49.1067 5.80788 50.1369 6.68264C51.4123 7.74543 52.0909 9.37239 52.4752 10.983C52.6224 11.6289 52.7368 12.3239 52.5079 12.9371Z" fill="#FDE8EF"/>
<path d="M11.6966 37.252C8.38298 33.2449 5.55031 28.735 4.17322 23.721C2.79613 18.707 2.98403 13.1346 5.42785 8.545C7.87168 3.95539 12.765 0.560595 17.9644 0.613775C21.0091 0.644917 23.9637 1.80776 26.5001 3.49226C28.9764 5.13682 30.755 7.30477 32.727 9.47249C34.5608 5.32946 38.4075 2.13468 42.8167 1.0926C47.226 0.0505188 52.0959 1.18524 55.5904 4.06897C65.4552 12.2095 60.2914 26.8973 53.5592 35.2347C48.3835 41.6445 41.5411 46.4593 34.7938 51.1865C33.9918 51.7484 32.8369 52.7473 31.8242 52.8509C30.7997 52.9557 29.8046 52.107 28.9089 51.6049C26.7478 50.3934 24.6608 49.0495 22.6625 47.5849C18.6013 44.6085 14.9055 41.1326 11.6966 37.252Z" stroke="#313C62" stroke-width="1.22636" stroke-miterlimit="10" stroke-linecap="round" stroke-linejoin="round"/>
<path d="M19.2937 45.2424C19.5509 49.9375 19.8551 55.4892 20.1123 60.1844" stroke="#313C62" stroke-width="1.22636" stroke-miterlimit="10" stroke-linecap="round" stroke-linejoin="round"/>
<path d="M9.1259 9.16302C6.0724 13.2711 5.49413 19.0823 7.67817 23.7116" stroke="#313C62" stroke-width="1.22636" stroke-miterlimit="10" stroke-linecap="round" stroke-linejoin="round"/>
<path d="M8.71387 26.722C9.05366 27.3118 9.39345 27.9016 9.73325 28.4914" stroke="#313C62" stroke-width="1.22636" stroke-miterlimit="10" stroke-linecap="round" stroke-linejoin="round"/>
<path d="M47.0437 68.6636L46.9946 68.8434" stroke="#313C62" stroke-width="1.22636" stroke-miterlimit="10" stroke-linecap="round" stroke-linejoin="round"/>
<path d="M20.0801 70.9037L22.1567 77.6242C22.2957 78.0902 22.729 78.4091 23.2196 78.4091C29.8828 79.3329 36.5542 79.3329 43.2174 78.4091C43.708 78.4091 44.1413 78.0902 44.2803 77.6242L45.5966 73.3728" stroke="#313C62" stroke-width="1.22636" stroke-miterlimit="10" stroke-linecap="round" stroke-linejoin="round"/>
<path d="M37.2982 65.516H31.1909" stroke="#313C62" stroke-width="1.22636" stroke-miterlimit="10" stroke-linecap="round" stroke-linejoin="round"/>
<path d="M20.1845 60.7291C20.8156 61.2456 21.2874 61.9979 21.484 62.7555C21.6081 61.8451 21.4193 60.9409 21.6184 60.0233C21.889 58.7756 22.8254 57.5787 24.0924 57.4221C25.469 57.2521 26.7738 58.4321 27.0326 59.7947C27.2913 61.1574 26.6796 62.5745 25.7295 63.5851C26.9657 63.1909 28.353 63.048 29.5333 63.587C30.7135 64.126 31.5684 65.5043 31.1843 66.7437C30.892 67.6866 29.9673 68.3319 29.0007 68.5327C28.0341 68.7336 27.0293 68.5588 26.0749 68.3063C27.4499 68.8208 27.9953 70.7489 27.1933 71.9786C26.3914 73.2082 24.5439 73.5361 23.2927 72.7681C22.0415 72.0001 21.4823 70.3286 21.8821 68.916C21.222 69.9981 20.3145 71.0109 19.1054 71.3911C17.8963 71.7714 16.3634 71.3091 15.8772 70.1385C15.5318 69.3069 15.7803 68.3215 16.2976 67.5844C16.815 66.8473 17.5663 66.3121 18.3147 65.8112C16.9118 65.7111 15.6896 64.4446 15.6397 63.0391C15.5897 61.6336 16.7188 60.2834 18.111 60.084C18.8776 59.9741 19.5995 60.2503 20.1845 60.7291Z" fill="#ED145B"/>
<path d="M20.1845 60.7291C20.8156 61.2456 21.2874 61.9979 21.484 62.7555C21.6081 61.8451 21.4193 60.9409 21.6184 60.0233C21.889 58.7756 22.8254 57.5787 24.0924 57.4221C25.469 57.2521 26.7738 58.4321 27.0326 59.7947C27.2913 61.1574 26.6796 62.5745 25.7295 63.5851C26.9657 63.1909 28.353 63.048 29.5333 63.587C30.7135 64.126 31.5684 65.5043 31.1843 66.7437C30.892 67.6866 29.9673 68.3319 29.0007 68.5327C28.0341 68.7336 27.0293 68.5588 26.0749 68.3063C27.4499 68.8208 27.9953 70.7489 27.1933 71.9786C26.3914 73.2082 24.5439 73.5361 23.2927 72.7681C22.0415 72.0001 21.4823 70.3286 21.8821 68.916C21.222 69.9981 20.3145 71.0109 19.1054 71.3911C17.8963 71.7714 16.3634 71.3091 15.8772 70.1385C15.5318 69.3069 15.7803 68.3215 16.2976 67.5844C16.815 66.8473 17.5663 66.3121 18.3147 65.8112C16.9118 65.7111 15.6896 64.4446 15.6397 63.0391C15.5897 61.6336 16.7188 60.2834 18.111 60.084C18.8776 59.9741 19.5995 60.2503 20.1845 60.7291Z" stroke="#313C62" stroke-width="1.22636" stroke-miterlimit="10" stroke-linecap="round" stroke-linejoin="round"/>
<path d="M23.4576 67.1319C24.4731 67.1319 25.2964 66.3086 25.2964 65.2931C25.2964 64.2776 24.4731 63.4544 23.4576 63.4544C22.4421 63.4544 21.6189 64.2776 21.6189 65.2931C21.6189 66.3086 22.4421 67.1319 23.4576 67.1319Z" fill="#313C62"/>
<path d="M40.56 60.9471C41.1911 61.4637 41.6629 62.216 41.8595 62.9736C41.9836 62.0632 41.7948 61.159 41.9939 60.2413C42.2645 58.9937 43.2009 57.7968 44.4679 57.6402C45.8444 57.4701 47.1493 58.6501 47.4081 60.0128C47.6668 61.3755 47.055 62.7926 46.105 63.8032C47.3412 63.409 48.7285 63.2661 49.9087 63.8051C51.089 64.3441 51.9439 65.7224 51.5598 66.9617C51.2675 67.9047 50.3428 68.55 49.3762 68.7508C48.4096 68.9516 47.4048 68.7769 46.4504 68.5244C47.8254 69.0388 48.3708 70.967 47.5688 72.1966C46.7669 73.4263 44.9193 73.7541 43.6682 72.9861C42.417 72.2182 41.8578 70.5467 42.2576 69.1341C41.5975 70.2161 40.69 71.229 39.4809 71.6092C38.2718 71.9894 36.7389 71.5271 36.2527 70.3566C35.9073 69.525 36.1558 68.5396 36.6731 67.8025C37.1905 67.0653 37.9418 66.5302 38.6901 66.0293C37.2873 65.9292 36.0651 64.6627 36.0151 63.2572C35.9652 61.8517 37.0943 60.5015 38.4865 60.3021C39.2531 60.1922 39.975 60.4684 40.56 60.9471Z" fill="#ED145B"/>
<path d="M40.56 60.9471C41.1911 61.4637 41.6629 62.216 41.8595 62.9736C41.9836 62.0632 41.7948 61.159 41.9939 60.2413C42.2645 58.9937 43.2009 57.7968 44.4679 57.6402C45.8444 57.4701 47.1493 58.6501 47.4081 60.0128C47.6668 61.3755 47.055 62.7926 46.105 63.8032C47.3412 63.409 48.7285 63.2661 49.9087 63.8051C51.089 64.3441 51.9439 65.7224 51.5598 66.9617C51.2675 67.9047 50.3428 68.55 49.3762 68.7508C48.4096 68.9516 47.4048 68.7769 46.4504 68.5244C47.8254 69.0388 48.3708 70.967 47.5688 72.1966C46.7669 73.4263 44.9193 73.7541 43.6682 72.9861C42.417 72.2182 41.8578 70.5467 42.2576 69.1341C41.5975 70.2161 40.69 71.229 39.4809 71.6092C38.2718 71.9894 36.7389 71.5271 36.2527 70.3566C35.9073 69.525 36.1558 68.5396 36.6731 67.8025C37.1905 67.0653 37.9418 66.5302 38.6901 66.0293C37.2873 65.9292 36.0651 64.6627 36.0151 63.2572C35.9652 61.8517 37.0943 60.5015 38.4865 60.3021C39.2531 60.1922 39.975 60.4684 40.56 60.9471Z" stroke="#313C62" stroke-width="1.22636" stroke-miterlimit="10" stroke-linecap="round" stroke-linejoin="round"/>
<path d="M43.8332 67.35C44.8487 67.35 45.672 66.5267 45.672 65.5112C45.672 64.4957 44.8487 63.6725 43.8332 63.6725C42.8177 63.6725 41.9945 64.4957 41.9945 65.5112C41.9945 66.5267 42.8177 67.35 43.8332 67.35Z" fill="#313C62"/>
<path d="M47.2546 59.1505V42.0168" stroke="#313C62" stroke-width="1.22636" stroke-miterlimit="10" stroke-linecap="round" stroke-linejoin="round"/>
<path d="M23.7755 22.0243C24.9667 22.0243 25.9323 21.0587 25.9323 19.8675C25.9323 18.6764 24.9667 17.7108 23.7755 17.7108C22.5844 17.7108 21.6188 18.6764 21.6188 19.8675C21.6188 21.0587 22.5844 22.0243 23.7755 22.0243Z" fill="#313C62"/>
<path d="M39.3881 22.0243C40.5792 22.0243 41.5448 21.0587 41.5448 19.8675C41.5448 18.6764 40.5792 17.7108 39.3881 17.7108C38.1969 17.7108 37.2313 18.6764 37.2313 19.8675C37.2313 21.0587 38.1969 22.0243 39.3881 22.0243Z" fill="#313C62"/>
<path d="M28.8083 26.7288C29.0133 27.7984 30.1534 28.5227 31.2418 28.4831C32.3302 28.4434 33.3203 27.7773 33.9985 26.9251" stroke="#313C62" stroke-width="1.22636" stroke-miterlimit="10" stroke-linecap="round" stroke-linejoin="round"/>
<path d="M46.7756 63.2047C47.9748 61.1163 50.1522 59.618 52.5313 59.2443C54.9103 58.8706 57.4422 59.629 59.224 61.2491" stroke="#313C62" stroke-width="1.22636" stroke-miterlimit="10" stroke-linecap="round" stroke-linejoin="round"/>
<path d="M28.4355 76.875C30.1689 74.8805 32.0345 73.001 34.0161 71.2529" stroke="#313C62" stroke-width="1.22636" stroke-miterlimit="10" stroke-linecap="round" stroke-linejoin="round"/>
<path d="M32.5586 76.2708C32.8989 75.8849 33.2392 75.499 33.5795 75.113" stroke="#313C62" stroke-width="1.22636" stroke-miterlimit="10" stroke-linecap="round" stroke-linejoin="round"/>
<path d="M55.6224 59.929C55.7598 61.3623 56.5522 62.7198 57.7326 63.5444C58.4583 64.0512 59.3125 64.361 60.0057 64.9116C61.0205 65.7177 61.608 67.0337 61.5306 68.3275C62.6238 66.9269 63.4092 65.2291 63.4517 63.4529C63.4942 61.6767 62.706 59.8333 61.2137 58.869C59.7215 57.9047 57.5325 58.0233 56.3328 59.3337" stroke="#667085" stroke-width="1.22636" stroke-miterlimit="10" stroke-linecap="round" stroke-linejoin="round"/>
<path d="M25.9741 58.0865C25.3174 56.1465 23.1592 55.1687 21.1574 54.7359C19.0442 54.279 16.796 54.1898 14.7557 54.9051C11.1472 56.1701 8.68263 60.1121 9.12565 63.9101" stroke="#313C62" stroke-width="1.22636" stroke-miterlimit="10" stroke-linecap="round" stroke-linejoin="round"/>
<path d="M5.41099 65.0812C5.38817 66.9934 5.36535 68.9055 5.34253 70.8177C7.07042 70.5787 8.78766 69.9992 10.1409 68.8986C11.4942 67.798 12.4433 66.1291 12.4233 64.3849C12.4031 62.6197 10.7633 59.7965 8.7455 59.772C5.94471 59.738 5.43594 62.9899 5.41099 65.0812Z" stroke="#667085" stroke-width="1.22636" stroke-miterlimit="10" stroke-linecap="round" stroke-linejoin="round"/>
<path d="M48.0366 69.2517C49.3434 69.4403 50.5668 70.1537 51.3746 71.198C52.1824 72.2423 52.5654 73.6058 52.4196 74.918" stroke="#313C62" stroke-width="1.22636" stroke-miterlimit="10" stroke-linecap="round" stroke-linejoin="round"/>
<path d="M0.613403 6.09497C1.29294 6.34645 1.97247 6.59792 2.652 6.8494" stroke="#313C62" stroke-width="1.22636" stroke-miterlimit="10" stroke-linecap="round" stroke-linejoin="round"/>
<path d="M4.04712 3.10272C4.21139 3.93325 4.37567 4.76378 4.53994 5.59431" stroke="#313C62" stroke-width="1.22636" stroke-miterlimit="10" stroke-linecap="round" stroke-linejoin="round"/>
</svg>
