<svg width="88" height="75" viewBox="0 0 88 75" fill="none" xmlns="http://www.w3.org/2000/svg">
<path d="M9.71703 51.6009C7.68732 51.9587 6.22987 52.3342 4.11971 50.7157C1.9827 49.0796 0.561046 46.424 0.677289 43.7058C0.820327 40.308 3.34181 37.2233 6.52495 36.1323C6.3908 37.6167 6.37296 39.1098 6.4713 40.5942C6.5339 41.6045 6.65014 42.6148 6.82892 43.6163C7.33859 46.4507 8.33113 49.1331 9.71703 51.6009Z" stroke="#313C62" stroke-width="1.34121" stroke-miterlimit="10" stroke-linecap="round" stroke-linejoin="round"/>
<path d="M21.1709 62.9836C19.7045 64.4141 17.809 65.5049 15.8865 65.9251C13.2936 66.4796 10.3518 65.6568 8.72453 63.5647C7.33857 61.7674 7.06138 59.2638 7.6605 57.0732C8.13436 55.3118 9.10005 53.8542 10.2267 52.4861C12.8733 56.8228 16.7181 60.4352 21.1709 62.9836Z" stroke="#313C62" stroke-width="1.34121" stroke-miterlimit="10" stroke-linecap="round" stroke-linejoin="round"/>
<path d="M38.106 66.9893C37.0509 69.7521 34.9228 72.2199 32.2315 73.2662C28.95 74.5358 24.8816 73.7133 22.5926 71.0485C20.7417 68.9116 20.2947 65.666 21.4213 63.1176C22.2886 63.6094 23.1738 64.0476 24.0769 64.4499C28.2883 66.3095 32.8842 67.2574 37.4175 67.0338C37.65 67.0249 37.8825 67.0072 38.106 66.9893Z" stroke="#313C62" stroke-width="1.34121" stroke-miterlimit="10" stroke-linecap="round" stroke-linejoin="round"/>
<path d="M49.2381 11.5348C46.8596 10.4529 44.3471 9.67492 41.772 9.24575C41.5842 9.2189 41.3875 9.1831 41.1997 9.15625C36.6485 8.4946 31.9543 8.89691 27.5641 10.265C23.0308 11.6599 18.8194 14.083 15.4038 17.3825C15.3233 17.4628 15.2428 17.5434 15.1623 17.6237C10.4502 22.2911 7.437 28.6038 6.63225 35.1669C4.19126 34.1564 2.20624 32.0284 1.49989 29.48C0.605753 26.2255 1.83072 22.488 4.4774 20.4046C4.82607 20.4046 5.74706 19.5731 6.12258 19.4031C6.7038 19.135 7.32076 18.9381 7.94661 18.8041C9.16268 18.5358 10.334 18.7683 11.5679 18.7414C9.70809 16.7296 9.30572 13.5198 10.6022 11.1144C11.8987 8.70918 14.8047 7.27869 17.505 7.72576C19.2575 8.02067 20.8044 8.98642 22.2708 9.98796C21.77 9.63912 22.083 6.80477 22.2261 6.23239C22.4943 5.12367 23.2364 3.92566 24.0054 3.01362C24.1127 2.87937 24.2289 2.75428 24.3362 2.63793C25.3913 1.49363 26.8667 0.679818 28.4224 0.670868C30.0319 0.652968 31.5609 1.51153 32.6786 2.67373C33.823 3.85406 34.4132 5.32035 35.2894 6.66156C36.9525 4.40831 39.5009 2.3786 42.4784 2.33406C45.0713 2.29826 47.6197 3.82721 48.8178 6.12521C49.6672 7.77051 49.8013 9.76442 49.2381 11.5348Z" stroke="#313C62" stroke-width="1.34121" stroke-miterlimit="10" stroke-linecap="round" stroke-linejoin="round"/>
<path d="M64.5099 16.5239C64.5546 18.7324 63.741 20.6728 62.0779 22.0588C62.0511 22.0854 62.0243 22.1033 61.9974 22.1391C59.1451 17.9636 55.193 14.5479 50.6866 12.232C50.2573 12.0084 49.8192 11.7941 49.3811 11.6061C51.2856 9.17409 54.5671 7.81498 57.634 8.38735C61.4073 9.09376 64.4385 12.6791 64.5099 16.5239Z" stroke="#313C62" stroke-width="1.34121" stroke-miterlimit="10" stroke-linecap="round" stroke-linejoin="round"/>
<path d="M66.5396 57.7707C66.5217 60.9002 64.4116 64.0028 61.3983 64.8254C59.1451 65.4512 56.5699 64.5929 55.0678 62.8583C55.5775 64.3693 55.5685 66.0683 55.0588 67.5794C54.2988 69.8326 52.5016 71.6657 50.3557 72.6759C47.7627 73.901 44.5527 73.9189 42.0938 72.4524C40.1446 71.2989 38.7766 69.1799 38.553 66.9535C39.1342 66.9088 39.7154 66.8551 40.2966 66.7837C45.268 66.1845 50.1322 64.4409 54.2988 61.6959C54.3614 61.6601 54.4151 61.6153 54.4777 61.5708C57.2495 59.7288 59.6994 57.4308 61.6665 54.7394C61.7738 54.5964 61.8811 54.4445 61.9974 54.2924C62.6769 53.3268 63.2849 52.3163 63.8125 51.2703C65.4309 53.0764 66.5486 55.5264 66.5396 57.7707Z" stroke="#313C62" stroke-width="1.34121" stroke-miterlimit="10" stroke-linecap="round" stroke-linejoin="round"/>
<path d="M71.5201 50.4656C69.4367 52.2268 66.2715 52.4148 63.8483 51.1986C65.9406 47.1034 66.9599 42.4808 66.9063 37.876C68.8734 38.3589 70.76 39.1009 72.1638 40.6477C74.6227 43.357 74.3098 48.096 71.5201 50.4656Z" stroke="#313C62" stroke-width="1.34121" stroke-miterlimit="10" stroke-linecap="round" stroke-linejoin="round"/>
<path d="M13.1381 20.5687C12.3969 21.9231 11.7212 23.3141 11.183 24.8177V24.8187C9.52595 29.4734 8.97333 34.5482 9.75916 39.4495L9.83923 39.9232C11.5368 49.4815 18.6456 57.2326 27.3461 61.0853C31.6139 62.9763 36.2749 63.9391 40.8949 63.7093C41.8688 63.6611 42.84 63.5775 43.808 63.4593C47.7311 62.9871 51.5708 61.814 55.0844 60.0003L55.0834 59.9993C55.8643 59.5973 56.6859 59.1601 57.4896 58.6761C52.9552 62.7361 47.0959 65.3609 41.0199 66.2396L40.2494 66.3411C39.5376 66.4237 38.8243 66.4909 38.1097 66.5413L37.3949 66.5862C32.9339 66.8077 28.4121 65.877 24.2601 64.0374C15.7801 60.2823 8.90767 52.7436 7.27185 43.5355L7.13318 42.6741C6.00979 34.913 8.30116 26.7454 13.1381 20.5687Z" fill="#E4E4E4" stroke="#313C62" stroke-width="0.89414"/>
<path d="M66.9183 38.2808C66.9004 43.9676 65.2462 49.6364 61.9916 54.286C61.8843 54.4469 61.777 54.5989 61.6697 54.742C56.7072 61.5196 48.651 65.7846 40.2997 66.786C39.343 66.8933 38.3863 66.9827 37.4206 67.0364C32.8783 67.2599 28.2914 66.3121 24.08 64.4434C15.4873 60.6433 8.49514 52.9984 6.83204 43.6099C6.65322 42.6174 6.52803 41.607 6.46545 40.5967C5.92002 32.1828 9.15681 23.5722 15.1565 17.6262C15.237 17.5368 15.3264 17.4653 15.4068 17.3848C18.8225 14.0854 23.0249 11.6623 27.5672 10.2585C31.9574 8.89939 36.6427 8.48809 41.1939 9.1587C41.3816 9.18552 41.5783 9.22129 41.7661 9.24811C44.8777 9.76671 47.882 10.786 50.6896 12.2345C56.3764 15.1584 61.1689 19.8258 64.0034 25.5483C64.0749 25.7003 64.1554 25.8523 64.2269 26.0043C64.9243 27.4886 65.4876 29.0265 65.9168 30.5912C66.1672 31.5301 66.3728 32.4779 66.5249 33.4346" fill="#FDE8EF"/>
<path d="M66.9183 38.2808C66.9004 43.9676 65.2462 49.6364 61.9916 54.286C61.8843 54.4469 61.777 54.5989 61.6697 54.742C56.7072 61.5195 48.651 65.7846 40.2997 66.786C39.343 66.8933 38.3863 66.9827 37.4206 67.0364C32.8783 67.2599 28.2914 66.3121 24.08 64.4434C15.4873 60.6433 8.49514 52.9984 6.83204 43.6099C6.65322 42.6174 6.52803 41.607 6.46545 40.5967C5.92002 32.1828 9.15681 23.5722 15.1565 17.6262C15.237 17.5368 15.3264 17.4653 15.4068 17.3848C18.8225 14.0854 23.0249 11.6623 27.5672 10.2585C31.9574 8.89939 36.6427 8.48809 41.1939 9.1587C41.3816 9.18552 41.5783 9.22129 41.7661 9.24811C44.8777 9.76671 47.882 10.786 50.6896 12.2345C56.3764 15.1584 61.1689 19.8258 64.0034 25.5483C64.0749 25.7003 64.1554 25.8523 64.2269 26.0043C64.9243 27.4886 65.4876 29.0265 65.9168 30.5912C66.1672 31.5301 66.3728 32.4779 66.5249 33.4346" stroke="#313C62" stroke-width="1.34121" stroke-miterlimit="10" stroke-linecap="round" stroke-linejoin="round"/>
<path d="M13.4452 48.58C10.4303 43.9 9.16918 38.1182 9.96144 32.6077" stroke="#313C62" stroke-width="1.34121" stroke-miterlimit="10" stroke-linecap="round" stroke-linejoin="round"/>
<path d="M10.3186 30.0679C10.4452 29.4017 10.5719 28.7356 10.6985 28.0695" stroke="#313C62" stroke-width="1.34121" stroke-miterlimit="10" stroke-linecap="round" stroke-linejoin="round"/>
<path d="M42.2301 34.5079C44.4941 33.8167 47.1768 35.0018 48.1903 37.141C49.2038 39.2802 48.4219 42.1068 46.4531 43.421C47.1929 42.8303 47.9905 42.2821 48.8971 42.0095C49.8037 41.7369 50.8408 41.7716 51.6337 42.2887C53.0826 43.2336 53.1748 45.4496 52.2945 46.9386C51.4143 48.4277 49.8561 49.361 48.3618 50.2324" stroke="#313C62" stroke-width="1.34121" stroke-miterlimit="10" stroke-linecap="round" stroke-linejoin="round"/>
<path d="M74.1519 20.5501C72.9717 20.6574 71.854 21.0419 71.0046 21.8287C69.3683 23.3488 68.7424 25.8524 69.4756 27.9625C70.1462 29.8849 71.9255 31.3692 73.9284 31.7358" stroke="#313C62" stroke-width="1.34121" stroke-miterlimit="10" stroke-linecap="round" stroke-linejoin="round"/>
<path d="M75.0328 20.5787C76.4267 19.932 78.1085 19.72 79.7399 19.9401C81.6478 20.1974 83.4244 21.0353 84.5524 22.3727L84.7692 22.6461C86.8313 25.4376 86.3754 29.7903 83.7867 32.0865C82.3403 33.3638 80.429 34.0033 78.4615 34.6051H78.4606C72.3156 36.5041 66.0749 38.1243 59.7819 39.4606C59.6797 39.3311 59.5736 39.2102 59.4713 39.1002C59.383 39.0053 59.3011 38.9199 59.2242 38.8375L59.0074 38.5934C58.771 38.3058 58.6163 37.9522 58.528 37.5748L58.4938 37.4117C58.4593 37.2001 58.4851 37.092 58.526 36.9869C58.5527 36.9185 58.5865 36.8509 58.6383 36.7448C58.6877 36.6437 58.7457 36.5202 58.8024 36.3707C58.9032 36.1224 58.9613 35.8698 58.9948 35.6198C64.3287 34.3923 69.9092 33.1236 70.858 32.902L70.859 32.903C71.8086 32.688 72.7583 32.4631 73.7135 32.2399C74.9472 31.9527 76.3093 31.5877 77.4899 30.9869C78.6741 30.3843 79.7153 29.5245 80.2487 28.2291C81.0375 26.3216 80.3588 24.0896 78.9752 22.6676C77.8657 21.5136 76.4619 20.9357 75.0328 20.5787Z" fill="#ED145B" stroke="#313C62" stroke-width="0.89414"/>
<path d="M84.0852 32.4182C82.5561 33.7681 80.5487 34.4329 78.5928 35.0362C72.3403 36.9677 65.9946 38.6136 59.5942 39.9565C58.3997 40.2139 57.2034 40.4611 56.0034 40.6882C54.5527 40.9709 53.0984 41.2334 51.6423 41.4858C50.3074 41.7163 48.9947 41.8386 47.7201 42.2876C48.5131 40.9036 48.7823 39.2177 48.4676 37.6476C48.4585 37.5971 53.3634 36.4615 58.5796 35.2593C64.0161 34.0069 69.806 32.6907 70.7563 32.467C71.7085 32.2536 72.6588 32.0299 73.6091 31.8062C76.0716 31.2367 78.8797 30.3857 79.8354 28.0544C80.5398 26.3526 79.9403 24.3024 78.6587 22.9796C77.3498 21.6206 75.588 21.1043 73.7967 20.7705C77.0931 18.4654 82.7327 19.1471 85.1316 22.3849C87.3262 25.3571 86.8448 29.9699 84.0852 32.4182Z" stroke="#313C62" stroke-width="1.34121" stroke-miterlimit="10" stroke-linecap="round" stroke-linejoin="round"/>
<path d="M59.5922 39.9594C58.403 40.2096 57.2048 40.46 56.0067 40.6925C54.5493 40.9697 53.1007 41.2291 51.6433 41.4884C50.311 41.7119 48.9966 41.837 47.718 42.2841C48.5138 40.9071 48.782 39.2172 48.4691 37.6435C48.4691 37.5988 53.369 36.4632 58.5818 35.256C58.5639 35.587 58.5103 35.9087 58.3851 36.2128C58.1884 36.7315 57.9559 36.9013 58.0543 37.4914C58.1437 37.9832 58.3315 38.475 58.6623 38.8774C58.9574 39.2351 59.3418 39.5659 59.5922 39.9594Z" stroke="#313C62" stroke-width="1.34121" stroke-miterlimit="10" stroke-linecap="round" stroke-linejoin="round"/>
<path d="M76.414 30.9847C76.414 30.9847 76.414 30.9847 76.423 30.9847C76.718 30.6897 76.9147 30.2784 76.9684 29.8671C77.0489 29.2143 76.8343 28.5616 76.5213 27.9804C75.958 26.9432 75.0728 26.0759 74.0267 25.5394C75.8597 25.1907 77.6479 24.6363 79.3647 23.9031H79.3736" stroke="#313C62" stroke-width="1.34121" stroke-miterlimit="10" stroke-linecap="round" stroke-linejoin="round"/>
<path d="M30.3494 27.9095C31.5415 27.9095 32.5084 28.8756 32.5085 30.0677C32.5085 31.2598 31.5415 32.2269 30.3494 32.2269C29.1573 32.2268 28.1912 31.2598 28.1912 30.0677C28.1913 28.8757 29.1574 27.9096 30.3494 27.9095Z" fill="black" stroke="#313C62" stroke-width="0.89414"/>
<path d="M44.8356 22.2081C46.0277 22.2081 46.9947 23.1743 46.9948 24.3663C46.9948 25.5585 46.0277 26.5255 44.8356 26.5255C43.6435 26.5254 42.6774 25.5584 42.6774 24.3663C42.6775 23.1743 43.6436 22.2082 44.8356 22.2081Z" fill="black" stroke="#313C62" stroke-width="0.89414"/>
<path d="M5.51239 5.39032C6.7124 5.82857 7.91241 6.26681 9.11242 6.70506" stroke="#313C62" stroke-width="1.34121" stroke-miterlimit="10" stroke-linecap="round" stroke-linejoin="round"/>
<path d="M11.6109 4.85557C11.5078 3.68057 11.4048 2.50557 11.3017 1.33057C11.2776 1.38522 11.4499 1.82585 11.4258 1.8805" stroke="#313C62" stroke-width="1.34121" stroke-miterlimit="10" stroke-linecap="round" stroke-linejoin="round"/>
</svg>
