<svg width="50" height="50" viewBox="0 0 50 50" fill="none" xmlns="http://www.w3.org/2000/svg">
<rect width="50" height="50" rx="20" fill="#EBECF0"/>
<path d="M29.3654 19.4139C27.4754 19.4139 26.6766 20.3158 25.3604 20.3158C24.0108 20.3158 22.9815 19.4204 21.3437 19.4204C19.7405 19.4204 18.031 20.3992 16.9454 22.0665C15.421 24.4178 15.6798 28.8461 18.1487 32.6186C19.0318 33.969 20.2112 35.4836 21.758 35.5H21.7862C23.1305 35.5 23.5299 34.6197 25.3801 34.6093H25.4082C27.2307 34.6093 27.5963 35.4948 28.9351 35.4948H28.9632C30.5101 35.4784 31.7527 33.8003 32.6358 32.455C33.2715 31.4875 33.5077 31.0018 33.9952 29.9073C30.4238 28.5517 29.8501 23.4887 33.3821 21.5476C32.304 20.1976 30.789 19.4158 29.3607 19.4158L29.3654 19.4139Z" fill="white"/>
<path d="M28.9491 14.5012C27.8241 14.5776 26.5116 15.2938 25.7428 16.229C25.0453 17.0765 24.4716 18.3337 24.6966 19.5529H24.7866C25.9847 19.5529 27.211 18.8315 27.9272 17.9071C28.6172 17.0273 29.1403 15.7804 28.9491 14.5012Z" fill="white"/>
</svg>
