<svg width="30" height="30" viewBox="0 0 30 30" fill="none" xmlns="http://www.w3.org/2000/svg">
<path d="M5 15C5 11.2288 5 9.34315 6.17157 8.17158C7.34315 7 9.22876 7 13 7L17 7C20.7712 7 22.6569 7 23.8284 8.17157C25 9.34315 25 11.2288 25 15C25 18.7712 25 20.6569 23.8284 21.8284C22.6569 23 20.7712 23 17 23L13 23C9.22876 23 7.34315 23 6.17157 21.8284C5.51839 21.1752 5.22937 20.3001 5.10149 19" stroke="#667085" stroke-width="1.5" stroke-linecap="round"/>
<path d="M9 19L11.1589 17.2009C12.9955 15.6704 13.9139 14.9051 15 14.9051C15.6493 14.9051 16.2386 15.1786 17 15.7256M21 19L20.1 18.25L19.2 17.5" stroke="#667085" stroke-width="1.5" stroke-linecap="round"/>
</svg>
