<svg width="20" height="20" viewBox="0 0 20 20" fill="none" xmlns="http://www.w3.org/2000/svg">
<path d="M15 17.291H5C2.985 17.291 1.875 16.181 1.875 14.166V6.66602C1.875 4.65102 2.985 3.54102 5 3.54102H15C17.015 3.54102 18.125 4.65102 18.125 6.66602V14.166C18.125 16.181 17.015 17.291 15 17.291ZM5 4.79102C3.68583 4.79102 3.125 5.35185 3.125 6.66602V14.166C3.125 15.4802 3.68583 16.041 5 16.041H15C16.3142 16.041 16.875 15.4802 16.875 14.166V6.66602C16.875 5.35185 16.3142 4.79102 15 4.79102H5ZM10.8575 10.9818L14.9508 8.00518C15.2299 7.80268 15.2916 7.41102 15.0883 7.13185C14.8858 6.85352 14.4959 6.79018 14.2151 6.99435L10.1217 9.97102C10.0483 10.0244 9.95086 10.0244 9.87752 9.97102L5.7841 6.99435C5.50243 6.79018 5.11339 6.85435 4.91089 7.13185C4.70756 7.41102 4.76925 7.80184 5.04842 8.00518L9.14164 10.9827C9.39831 11.1693 9.69919 11.2618 9.99919 11.2618C10.2992 11.2618 10.6017 11.1685 10.8575 10.9818Z" fill="#868686"/>
</svg>
