<svg width="22" height="22" viewBox="0 0 22 22" fill="none" xmlns="http://www.w3.org/2000/svg">
<path d="M8.25016 4.088C9.08573 3.82223 10.0014 3.66669 11.0002 3.66669C14.8336 3.66669 17.4425 5.95795 18.9982 7.97899C19.7773 8.99117 20.1668 9.49726 20.1668 11C20.1668 12.5028 19.7773 13.0089 18.9982 14.0211C17.4425 16.0421 14.8336 18.3334 11.0002 18.3334C7.16677 18.3334 4.5578 16.0421 3.00215 14.0211C2.22305 13.0089 1.8335 12.5028 1.8335 11C1.8335 9.49726 2.22305 8.99117 3.00215 7.97899C3.44327 7.4059 3.96908 6.81109 4.5835 6.25294" stroke="#313C62" stroke-opacity="0.3" stroke-width="1.375" stroke-linecap="round"/>
<path d="M13.75 11C13.75 12.5188 12.5188 13.75 11 13.75C9.48122 13.75 8.25 12.5188 8.25 11C8.25 9.48122 9.48122 8.25 11 8.25C12.5188 8.25 13.75 9.48122 13.75 11Z" stroke="#E1E3E9" stroke-width="1.375"/>
</svg>
