<svg width="50" height="50" viewBox="0 0 50 50" fill="none" xmlns="http://www.w3.org/2000/svg">
<rect width="50" height="50" rx="20" fill="#EBECF0"/>
<path d="M25 14.8965C22.3478 14.8965 19.8043 15.9501 17.9289 17.8254C16.0536 19.7008 15 22.2443 15 24.8965C15 27.5486 16.0536 30.0922 17.9289 31.9676C19.8043 33.8429 22.3478 34.8965 25 34.8965C27.6522 34.8965 30.1957 33.8429 32.0711 31.9676C33.9464 30.0922 35 27.5486 35 24.8965C35 22.2443 33.9464 19.7008 32.0711 17.8254C30.1957 15.9501 27.6522 14.8965 25 14.8965Z" fill="#1565C0"/>
<path d="M26.351 27.5469H28.9389L29.3452 24.918H26.3505V23.4811C26.3505 22.389 26.7073 21.4206 27.7289 21.4206H29.3705V19.1264C29.0821 19.0874 28.4721 19.0022 27.3194 19.0022C24.9126 19.0022 23.5016 20.2732 23.5016 23.169V24.918H21.0273V27.5469H23.5016V34.7727C23.9916 34.8464 24.4879 34.8964 24.9973 34.8964C25.4579 34.8964 25.9073 34.8543 26.351 34.7943V27.5469Z" fill="white"/>
</svg>
