<svg width="20" height="20" viewBox="0 0 20 20" fill="none" xmlns="http://www.w3.org/2000/svg">
<path d="M15.8333 2.70768H9.77494C9.69411 1.66352 9.01746 1.04102 7.91663 1.04102H5.41663C4.29996 1.04102 3.61904 1.68016 3.55404 2.75183C1.9307 2.96266 1.04163 4.03352 1.04163 5.83268V14.9993C1.04163 17.0143 2.15163 18.1243 4.16663 18.1243C4.51163 18.1243 4.79163 17.8443 4.79163 17.4993C4.79163 17.1544 4.51163 16.8743 4.16663 16.8743C2.85246 16.8743 2.29163 16.3135 2.29163 14.9993V5.83268C2.29163 4.75352 2.67829 4.18849 3.54163 4.01933V13.7493C3.54163 14.9235 4.24246 15.6243 5.41663 15.6243H6.04163V15.8327C6.04163 16.8668 6.88329 17.7077 7.91663 17.7077H8.74996C9.09413 17.7077 9.37496 17.9877 9.37496 18.3327C9.37496 18.6777 9.65496 18.9577 9.99996 18.9577C10.345 18.9577 10.625 18.6777 10.625 18.3327C10.625 17.2985 9.78329 16.4577 8.74996 16.4577H7.91663C7.57246 16.4577 7.29163 16.1777 7.29163 15.8327V15.6243H7.91663C9.09079 15.6243 9.79163 14.9235 9.79163 13.7493V3.95768H15.8333C17.1475 3.95768 17.7083 4.51852 17.7083 5.83268V14.9993C17.7083 16.3135 17.1475 16.8743 15.8333 16.8743H12.5C12.155 16.8743 11.875 17.1544 11.875 17.4993C11.875 17.8443 12.155 18.1243 12.5 18.1243H15.8333C17.8483 18.1243 18.9583 17.0143 18.9583 14.9993V5.83268C18.9583 3.81768 17.8483 2.70768 15.8333 2.70768ZM8.54163 13.7493C8.54163 14.2402 8.40746 14.3743 7.91663 14.3743H5.41663C4.92579 14.3743 4.79163 14.2402 4.79163 13.7493V2.91602C4.79163 2.42518 4.92579 2.29102 5.41663 2.29102H7.91663C8.40746 2.29102 8.54163 2.42518 8.54163 2.91602V13.7493ZM15 9.79102C16.0333 9.79102 16.875 8.95018 16.875 7.91602C16.875 6.88185 16.0333 6.04102 15 6.04102H12.5C11.4666 6.04102 10.625 6.88185 10.625 7.91602C10.625 8.95018 11.4666 9.79102 12.5 9.79102H15ZM11.875 7.91602C11.875 7.57102 12.1558 7.29102 12.5 7.29102H15C15.3441 7.29102 15.625 7.57102 15.625 7.91602C15.625 8.26102 15.3441 8.54102 15 8.54102H12.5C12.1558 8.54102 11.875 8.26102 11.875 7.91602ZM15.8333 11.666C15.8333 12.126 15.46 12.4993 15 12.4993C14.54 12.4993 14.1666 12.126 14.1666 11.666C14.1666 11.206 14.54 10.8327 15 10.8327C15.46 10.8327 15.8333 11.206 15.8333 11.666ZM12.5 10.8327C12.96 10.8327 13.3333 11.206 13.3333 11.666C13.3333 12.126 12.96 12.4993 12.5 12.4993C12.04 12.4993 11.6666 12.126 11.6666 11.666C11.6666 11.206 12.04 10.8327 12.5 10.8327ZM15.8333 14.166C15.8333 14.626 15.46 14.9993 15 14.9993C14.54 14.9993 14.1666 14.626 14.1666 14.166C14.1666 13.706 14.54 13.3327 15 13.3327C15.46 13.3327 15.8333 13.706 15.8333 14.166ZM11.6666 14.166C11.6666 13.706 12.04 13.3327 12.5 13.3327C12.96 13.3327 13.3333 13.706 13.3333 14.166C13.3333 14.626 12.96 14.9993 12.5 14.9993C12.04 14.9993 11.6666 14.626 11.6666 14.166Z" fill="#868686"/>
</svg>
