<svg width="22" height="22" viewBox="0 0 22 22" fill="none" xmlns="http://www.w3.org/2000/svg">
<path d="M10.0284 20.7623C9.58836 20.7623 9.15753 20.6523 8.7542 20.4323C7.94753 19.9831 7.4617 19.1673 7.4617 18.2506V13.3923C7.4617 12.934 7.1592 12.2465 6.87503 11.8981L3.4467 8.26814C2.8692 7.69064 2.4292 6.70064 2.4292 5.95814V3.8498C2.4292 2.38314 3.53837 1.2373 4.95003 1.2373H17.05C18.4434 1.2373 19.5709 2.3648 19.5709 3.75814V5.77481C19.5709 6.73731 18.9934 7.82814 18.4525 8.36897L14.4834 11.8798C14.0984 12.2006 13.7959 12.9065 13.7959 13.4748V17.4165C13.7959 18.2323 13.2825 19.1765 12.6409 19.5615L11.3759 20.3773C10.9634 20.634 10.4959 20.7623 10.0284 20.7623ZM4.95003 2.6123C4.30837 2.6123 3.8042 3.15314 3.8042 3.8498V5.95814C3.8042 6.29731 4.0792 6.9573 4.42753 7.30564L7.92003 10.9815C8.38753 11.559 8.84587 12.5215 8.84587 13.3831V18.2415C8.84587 18.8373 9.25837 19.1306 9.43253 19.2223C9.81753 19.4331 10.285 19.4331 10.6425 19.2131L11.9167 18.3973C12.1734 18.2415 12.43 17.7465 12.43 17.4165V13.4748C12.43 12.494 12.9067 11.4123 13.5942 10.8348L17.5175 7.36064C17.8292 7.04897 18.205 6.30647 18.205 5.76564V3.75814C18.205 3.12564 17.6917 2.6123 17.0592 2.6123H4.95003Z" fill="#414141"/>
<path d="M5.49987 9.85433C5.37153 9.85433 5.25237 9.81766 5.1332 9.75349C4.81237 9.55183 4.71153 9.12099 4.9132 8.80016L9.43237 1.55849C9.63403 1.23766 10.0557 1.13683 10.3765 1.33849C10.6974 1.54016 10.7982 1.96183 10.5965 2.28266L6.07737 9.52433C5.94903 9.73516 5.72903 9.85433 5.49987 9.85433Z" fill="#414141"/>
</svg>
