<svg width="66" height="76" viewBox="0 0 66 76" fill="none" xmlns="http://www.w3.org/2000/svg">
<rect x="-34" y="-24" width="87" height="87" rx="43.5" fill="white" fill-opacity="0.3"/>
<circle cx="9.49993" cy="19.4999" r="45.1111" fill="#FDE8EF" fill-opacity="0.1" stroke="#FC9532" stroke-width="3.22222"/>
<path d="M4.66669 12.25H14.3334L4.66669 21.9167H14.3334" stroke="#FC9532" stroke-width="3.625" stroke-linecap="round" stroke-linejoin="round"/>
<path d="M-1.375 36.4167C0.207981 40.6405 4.47927 43.6667 9.5 43.6667C10.0908 43.6667 10.6712 43.6248 11.2381 43.544M20.375 36.4167C19.7296 38.1388 18.6374 39.6618 17.2296 40.8618" stroke="#FC9532" stroke-width="3.625" stroke-linecap="round"/>
<path d="M2.50968 -3.03752C4.62833 -4.08216 6.9984 -4.66669 9.5 -4.66669C18.508 -4.66669 25.8104 2.91253 25.8104 12.262V13.9648C25.8104 16.0083 26.3932 18.0061 27.4853 19.7064L30.1616 23.873C32.6062 27.6788 30.74 32.8519 26.4883 34.0554C15.3659 37.2037 3.63412 37.2037 -7.48829 34.0554C-11.74 32.8519 -13.6062 27.6788 -11.1616 23.873L-8.48532 19.7064C-7.39319 18.0061 -6.8104 16.0083 -6.8104 13.9648V12.262C-6.8104 9.66555 -6.24722 7.20564 -5.24073 5.00668" stroke="#FC9532" stroke-width="3.625" stroke-linecap="round"/>
<circle cx="9.50003" cy="19.5" r="55.3889" stroke="#FDE8EF" stroke-opacity="0.1" stroke-width="2"/>
</svg>
