<svg width="80" height="80" viewBox="0 0 80 80" fill="none" xmlns="http://www.w3.org/2000/svg">
<rect width="80" height="80" rx="40" fill="#FDE8EF"/>
<path d="M49 50L29 50" stroke="#BE1049" stroke-width="1.5" stroke-linecap="round"/>
<path d="M44 50V34C44 32.1144 44 31.1716 43.4142 30.5858C42.8284 30 41.8856 30 40 30H38C36.1144 30 35.1716 30 34.5858 30.5858C34 31.1716 34 32.1144 34 34V50" stroke="#BE1049" stroke-width="1.5"/>
<path d="M47.25 39.5C47.25 39.9142 47.5858 40.25 48 40.25C48.4142 40.25 48.75 39.9142 48.75 39.5H47.25ZM47.1111 36.3371L46.6945 36.9607L46.6945 36.9607L47.1111 36.3371ZM47.6629 36.8889L47.0393 37.3055L47.0393 37.3055L47.6629 36.8889ZM48.75 43.5C48.75 43.0858 48.4142 42.75 48 42.75C47.5858 42.75 47.25 43.0858 47.25 43.5H48.75ZM44.5 36V36.75C45.2178 36.75 45.6998 36.7509 46.0672 36.7883C46.422 36.8244 46.586 36.8882 46.6945 36.9607L47.1111 36.3371L47.5278 35.7135C47.1318 35.4489 46.6925 35.3441 46.219 35.296C45.758 35.2491 45.1866 35.25 44.5 35.25V36ZM48 39.5H48.75C48.75 38.8134 48.7509 38.242 48.704 37.781C48.6559 37.3075 48.5511 36.8682 48.2865 36.4722L47.6629 36.8889L47.0393 37.3055C47.1118 37.414 47.1756 37.578 47.2117 37.9328C47.2491 38.3002 47.25 38.7822 47.25 39.5H48ZM47.1111 36.3371L46.6945 36.9607C46.831 37.0519 46.9481 37.169 47.0393 37.3055L47.6629 36.8889L48.2865 36.4722C48.0859 36.1719 47.8281 35.9141 47.5278 35.7135L47.1111 36.3371ZM48 43.5H47.25V50H48H48.75V43.5H48Z" fill="#BE1049"/>
<path d="M30.8889 36.3371L31.3055 36.9607L31.3055 36.9607L30.8889 36.3371ZM30.3371 36.8889L30.9607 37.3055L30.9607 37.3055L30.3371 36.8889ZM30.75 48C30.75 47.5858 30.4142 47.25 30 47.25C29.5858 47.25 29.25 47.5858 29.25 48H30.75ZM29.25 44C29.25 44.4142 29.5858 44.75 30 44.75C30.4142 44.75 30.75 44.4142 30.75 44H29.25ZM33.5 36V35.25C32.8134 35.25 32.242 35.2491 31.781 35.296C31.3075 35.3441 30.8682 35.4489 30.4722 35.7135L30.8889 36.3371L31.3055 36.9607C31.414 36.8882 31.578 36.8244 31.9328 36.7883C32.3002 36.7509 32.7822 36.75 33.5 36.75V36ZM30 39.5H30.75C30.75 38.7822 30.7509 38.3002 30.7883 37.9328C30.8244 37.578 30.8882 37.414 30.9607 37.3055L30.3371 36.8889L29.7135 36.4722C29.4489 36.8682 29.3441 37.3075 29.296 37.781C29.2491 38.242 29.25 38.8134 29.25 39.5H30ZM30.8889 36.3371L30.4722 35.7135C30.1719 35.9141 29.9141 36.1719 29.7135 36.4722L30.3371 36.8889L30.9607 37.3055C31.0519 37.169 31.169 37.0519 31.3055 36.9607L30.8889 36.3371ZM30 48H29.25V50H30H30.75V48H30ZM30 39.5H29.25V44H30H30.75V39.5H30Z" fill="#BE1049"/>
<path d="M39 50V47" stroke="#BE1049" stroke-width="1.5" stroke-linecap="round"/>
<path d="M37 33H41" stroke="#BE1049" stroke-width="1.5" stroke-linecap="round"/>
<path d="M37 42H37.5M41 42H39.5" stroke="#BE1049" stroke-width="1.5" stroke-linecap="round"/>
<path d="M41 36H40.5M37 36H38.5" stroke="#BE1049" stroke-width="1.5" stroke-linecap="round"/>
<path d="M37 39H41" stroke="#BE1049" stroke-width="1.5" stroke-linecap="round"/>
</svg>
