<svg width="71" height="72" viewBox="0 0 71 72" fill="none" xmlns="http://www.w3.org/2000/svg">
<rect x="0.5" y="0.5" width="70" height="71" rx="35" fill="#FDE8EF"/>
<rect x="0.5" y="0.5" width="70" height="71" rx="35" stroke="#FDE8EF"/>
<path d="M14.8821 50.3984L12.3747 41.3577H13.8094L15.5707 48.359H15.6546L17.4866 41.3577H18.9081L20.7401 48.3634H20.8239L22.5809 41.3577H24.02L21.5082 50.3984H20.1353L18.2326 43.6267H18.162L16.2594 50.3984H14.8821ZM25.1578 50.3984V43.6179H26.4777V50.3984H25.1578ZM25.8244 42.5716C25.5948 42.5716 25.3977 42.4951 25.2328 42.3421C25.071 42.1861 24.9901 42.0007 24.9901 41.7859C24.9901 41.5681 25.071 41.3827 25.2328 41.2296C25.3977 41.0737 25.5948 40.9957 25.8244 40.9957C26.0539 40.9957 26.2496 41.0737 26.4115 41.2296C26.5763 41.3827 26.6587 41.5681 26.6587 41.7859C26.6587 42.0007 26.5763 42.1861 26.4115 42.3421C26.2496 42.4951 26.0539 42.5716 25.8244 42.5716ZM31.4804 43.6179V44.6773H27.6486V43.6179H31.4804ZM28.6993 50.3984V42.8321C28.6993 42.4083 28.792 42.0566 28.9774 41.777C29.1628 41.4945 29.4085 41.2841 29.7146 41.1458C30.0207 41.0045 30.3532 40.9339 30.7123 40.9339C30.9771 40.9339 31.2037 40.956 31.3921 41.0001C31.5804 41.0413 31.7202 41.0796 31.8115 41.1149L31.5025 42.1832C31.4407 42.1655 31.3612 42.1449 31.2641 42.1214C31.167 42.0949 31.0492 42.0816 30.9109 42.0816C30.5901 42.0816 30.3606 42.1611 30.2223 42.32C30.0869 42.4789 30.0192 42.7085 30.0192 43.0087V50.3984H28.6993ZM35.4975 50.5353C34.8295 50.5353 34.2541 50.3926 33.7715 50.1071C33.2918 49.8187 32.921 49.414 32.659 48.8931C32.4001 48.3693 32.2706 47.7557 32.2706 47.0523C32.2706 46.3578 32.4001 45.7456 32.659 45.2159C32.921 44.6862 33.2859 44.2727 33.7538 43.9754C34.2247 43.6782 34.775 43.5296 35.4048 43.5296C35.7874 43.5296 36.1582 43.5928 36.5173 43.7194C36.8763 43.8459 37.1985 44.0446 37.484 44.3153C37.7695 44.5861 37.9946 44.9378 38.1594 45.3704C38.3242 45.8001 38.4066 46.3224 38.4066 46.9375V47.4054H33.0166V46.4166H37.1132C37.1132 46.0693 37.0426 45.7618 36.9013 45.494C36.76 45.2232 36.5614 45.0099 36.3054 44.8539C36.0523 44.6979 35.755 44.6199 35.4136 44.6199C35.0428 44.6199 34.7191 44.7112 34.4425 44.8936C34.1688 45.0732 33.9569 45.3086 33.8068 45.5999C33.6596 45.8884 33.5861 46.2018 33.5861 46.5402V47.3127C33.5861 47.766 33.6655 48.1515 33.8244 48.4693C33.9863 48.7872 34.2114 49.03 34.4999 49.1977C34.7883 49.3625 35.1252 49.4449 35.5108 49.4449C35.7609 49.4449 35.989 49.4096 36.195 49.339C36.401 49.2654 36.5791 49.1565 36.7291 49.0123C36.8792 48.8681 36.994 48.69 37.0735 48.4782L38.3228 48.7033C38.2227 49.0712 38.0432 49.3934 37.7842 49.6701C37.5282 49.9438 37.2059 50.1571 36.8174 50.3101C36.4319 50.4602 35.9919 50.5353 35.4975 50.5353Z" fill="#B20F44"/>
<path d="M11.7071 38.334V27.7528H14.2645V36.257H18.6665V38.334H11.7071Z" fill="#6B0929"/>
<path d="M48.8681 27.0066L45.0963 38H41.0883L37.3236 27.0066H41.0096L43.0351 34.5789H43.1496L45.1822 27.0066H48.8681ZM54.9947 38.2076C53.8448 38.2076 52.8523 37.9809 52.0173 37.5276C51.1871 37.0696 50.5477 36.4183 50.0992 35.5737C49.6554 34.7244 49.4336 33.7152 49.4336 32.5462C49.4336 31.4106 49.6578 30.4182 50.1063 29.5689C50.5549 28.7148 51.1871 28.0515 52.003 27.5792C52.8189 27.102 53.7803 26.8634 54.8873 26.8634C55.6698 26.8634 56.3856 26.9851 57.0345 27.2285C57.6834 27.4718 58.244 27.832 58.7164 28.3092C59.1888 28.7863 59.5562 29.3756 59.8186 30.077C60.081 30.7736 60.2123 31.5729 60.2123 32.4747V33.3478H50.6574V31.3152H56.9557C56.951 30.943 56.8627 30.6114 56.6909 30.3204C56.5192 30.0293 56.283 29.8027 55.9824 29.6404C55.6865 29.4734 55.3454 29.3899 54.9589 29.3899C54.5676 29.3899 54.2169 29.4782 53.9068 29.6547C53.5966 29.8265 53.3509 30.0627 53.1696 30.3633C52.9883 30.6591 52.8929 30.9955 52.8833 31.3725V33.4409C52.8833 33.8894 52.9716 34.283 53.1481 34.6218C53.3247 34.9558 53.5752 35.2159 53.8996 35.4019C54.2241 35.588 54.6106 35.6811 55.0591 35.6811C55.3692 35.6811 55.6508 35.6381 55.9036 35.5522C56.1565 35.4664 56.3736 35.3399 56.5549 35.1729C56.7363 35.0059 56.8722 34.8007 56.9629 34.5574L60.1765 34.6504C60.0429 35.3709 59.7494 35.9984 59.2961 36.5328C58.8476 37.0624 58.2584 37.4751 57.5283 37.771C56.7983 38.062 55.9537 38.2076 54.9947 38.2076Z" fill="#B20F44"/>
<path d="M30.9867 33.8666C29.2113 31.9185 27.0413 33.3556 27.0413 35.382C27.0413 37.2176 28.3425 38.2764 29.4504 39.178L29.4816 39.2033C29.586 39.2883 29.6885 39.3719 29.788 39.4547C30.1976 39.7957 30.5921 40.1169 30.9867 40.1169C31.3812 40.1169 31.7758 39.7957 32.1854 39.4547C33.3463 38.4882 34.9321 37.4083 34.9321 35.382C34.9321 34.7163 34.6979 34.1142 34.3205 33.6748C33.5489 32.7767 32.1788 32.5585 30.9867 33.8666Z" fill="url(#paint0_radial_1072_29925)"/>
<path d="M24.9654 37.4263C22.951 35.8743 20.5851 34.0514 20.5851 30.8914C20.5851 27.403 24.5306 24.9291 27.7586 28.2828C30.9866 24.9291 34.9321 27.403 34.9321 30.8914C34.9321 31.4894 34.8474 32.0395 34.6964 32.5489C34.1806 32.1346 33.534 31.8731 32.8173 31.8691C32.1789 31.8655 31.556 32.066 30.9858 32.4502C29.9895 31.7811 28.8654 31.6911 27.8804 32.1666C26.7073 32.7329 25.9652 34 25.9652 35.3837C25.9652 37.0373 26.7891 38.1973 27.6449 39.0381C26.9654 38.9841 26.2845 38.4588 25.5791 37.9027C25.3804 37.746 25.1748 37.5876 24.9654 37.4263Z" fill="url(#paint1_radial_1072_29925)"/>
<defs>
<radialGradient id="paint0_radial_1072_29925" cx="0" cy="0" r="1" gradientUnits="userSpaceOnUse" gradientTransform="translate(30.9867 36.5301) rotate(90) scale(3.58676 3.94543)">
<stop stop-color="#D51252"/>
<stop offset="1" stop-color="#8E0C37"/>
</radialGradient>
<radialGradient id="paint1_radial_1072_29925" cx="0" cy="0" r="1" gradientUnits="userSpaceOnUse" gradientTransform="translate(27.7586 32.8657) rotate(90) scale(6.17235 7.17351)">
<stop stop-color="#D51252"/>
<stop offset="1" stop-color="#8E0C37"/>
</radialGradient>
</defs>
</svg>
