<svg width="52" height="52" viewBox="0 0 52 52" fill="none" xmlns="http://www.w3.org/2000/svg">
<rect x="5.9259" y="5.9259" width="40" height="40" rx="20" fill="white" fill-opacity="0.3"/>
<circle cx="25.9259" cy="25.9259" r="20.7407" fill="#FDE8EF" stroke="#ED145B" stroke-width="1.48148"/>
<path d="M23.7037 22.5926H28.1481L23.7037 27.037H28.1481" stroke="#ED145B" stroke-width="1.66667" stroke-linecap="round" stroke-linejoin="round"/>
<path d="M20.9259 33.7037C21.6537 35.6457 23.6175 37.037 25.9259 37.037C26.1975 37.037 26.4644 37.0178 26.725 36.9806M30.9259 33.7037C30.6292 34.4955 30.127 35.1957 29.4798 35.7474" stroke="#ED145B" stroke-width="1.66667" stroke-linecap="round"/>
<path d="M22.712 15.5639C23.6861 15.0836 24.7757 14.8148 25.9259 14.8148C30.0675 14.8148 33.4249 18.2995 33.4249 22.5981V23.381C33.4249 24.3205 33.6929 25.2391 34.195 26.0208L35.4255 27.9365C36.5494 29.6863 35.6914 32.0647 33.7366 32.6181C28.6229 34.0656 23.2289 34.0656 18.1152 32.6181C16.1604 32.0647 15.3024 29.6863 16.4263 27.9365L17.6568 26.0208C18.1589 25.2391 18.4269 24.3205 18.4269 23.381V22.5981C18.4269 21.4044 18.6858 20.2734 19.1486 19.2623" stroke="#ED145B" stroke-width="1.66667" stroke-linecap="round"/>
<circle cx="25.9259" cy="25.9259" r="25.1852" stroke="#FDE8EF" stroke-width="1.48148"/>
</svg>
