<svg width="50" height="50" viewBox="0 0 50 50" fill="none" xmlns="http://www.w3.org/2000/svg">
<rect width="50" height="50" rx="20" fill="#EBECF0"/>
<path d="M35.075 22.6714H34.2695V22.6299H25.2695V26.6299H30.921C30.0965 28.9584 27.881 30.6299 25.2695 30.6299C21.956 30.6299 19.2695 27.9434 19.2695 24.6299C19.2695 21.3164 21.956 18.6299 25.2695 18.6299C26.799 18.6299 28.1905 19.2069 29.25 20.1494L32.0785 17.3209C30.2925 15.6564 27.9035 14.6299 25.2695 14.6299C19.747 14.6299 15.2695 19.1074 15.2695 24.6299C15.2695 30.1524 19.747 34.6299 25.2695 34.6299C30.792 34.6299 35.2695 30.1524 35.2695 24.6299C35.2695 23.9594 35.2005 23.3049 35.075 22.6714Z" fill="#FBC02D"/>
<path d="M16.4219 19.9754L19.7074 22.3849C20.5964 20.1839 22.7494 18.6299 25.2689 18.6299C26.7984 18.6299 28.1899 19.2069 29.2494 20.1494L32.0779 17.3209C30.2919 15.6564 27.9029 14.6299 25.2689 14.6299C21.4279 14.6299 18.0969 16.7984 16.4219 19.9754Z" fill="#E53935"/>
<path d="M25.2697 34.6302C27.8527 34.6302 30.1997 33.6417 31.9742 32.0342L28.8792 29.4152C27.8752 30.1757 26.6272 30.6302 25.2697 30.6302C22.6687 30.6302 20.4602 28.9717 19.6282 26.6572L16.3672 29.1697C18.0222 32.4082 21.3832 34.6302 25.2697 34.6302Z" fill="#4CAF50"/>
<path d="M35.075 22.6714L35.067 22.6299H34.2695H25.2695V26.6299H30.921C30.525 27.7484 29.8055 28.7129 28.8775 29.4154C28.878 29.4149 28.8785 29.4149 28.879 29.4144L31.974 32.0334C31.755 32.2324 35.2695 29.6299 35.2695 24.6299C35.2695 23.9594 35.2005 23.3049 35.075 22.6714Z" fill="#1565C0"/>
</svg>
