<svg width="51" height="35" viewBox="0 0 51 35" fill="none" xmlns="http://www.w3.org/2000/svg">
<path d="M3.97584 31.3989L1.46844 22.3582H2.90313L4.66449 29.3595H4.74837L6.58036 22.3582H8.00181L9.8338 29.3639H9.91768L11.6746 22.3582H13.1137L10.6019 31.3989H9.22902L7.3264 24.6272H7.25577L5.35315 31.3989H3.97584ZM14.2516 31.3989V24.6183H15.5715V31.3989H14.2516ZM14.9181 23.5721C14.6886 23.5721 14.4914 23.4956 14.3266 23.3426C14.1647 23.1866 14.0838 23.0012 14.0838 22.7864C14.0838 22.5686 14.1647 22.3832 14.3266 22.2301C14.4914 22.0742 14.6886 21.9962 14.9181 21.9962C15.1477 21.9962 15.3434 22.0742 15.5053 22.2301C15.6701 22.3832 15.7525 22.5686 15.7525 22.7864C15.7525 23.0012 15.6701 23.1866 15.5053 23.3426C15.3434 23.4956 15.1477 23.5721 14.9181 23.5721ZM20.5741 24.6183V25.6778H16.7424V24.6183H20.5741ZM17.793 31.3989V23.8326C17.793 23.4088 17.8857 23.0571 18.0711 22.7775C18.2565 22.495 18.5023 22.2846 18.8084 22.1463C19.1144 22.005 19.447 21.9344 19.806 21.9344C20.0709 21.9344 20.2975 21.9564 20.4858 22.0006C20.6742 22.0418 20.814 22.08 20.9052 22.1154L20.5962 23.1837C20.5344 23.166 20.4549 23.1454 20.3578 23.1219C20.2607 23.0954 20.143 23.0821 20.0047 23.0821C19.6839 23.0821 19.4543 23.1616 19.316 23.3205C19.1806 23.4794 19.113 23.709 19.113 24.0092V31.3989H17.793ZM24.5913 31.5358C23.9232 31.5358 23.3479 31.393 22.8652 31.1076C22.3855 30.8192 22.0147 30.4145 21.7528 29.8936C21.4938 29.3698 21.3643 28.7561 21.3643 28.0528C21.3643 27.3582 21.4938 26.7461 21.7528 26.2164C22.0147 25.6866 22.3796 25.2732 22.8476 24.9759C23.3184 24.6787 23.8688 24.5301 24.4986 24.5301C24.8812 24.5301 25.252 24.5933 25.611 24.7199C25.97 24.8464 26.2923 25.0451 26.5778 25.3158C26.8632 25.5866 27.0884 25.9383 27.2532 26.3709C27.418 26.8006 27.5004 27.3229 27.5004 27.938V28.4059H22.1104V27.4171H26.207C26.207 27.0698 26.1363 26.7623 25.9951 26.4945C25.8538 26.2237 25.6551 26.0104 25.3991 25.8544C25.146 25.6984 24.8488 25.6204 24.5074 25.6204C24.1366 25.6204 23.8129 25.7117 23.5362 25.8941C23.2625 26.0736 23.0506 26.3091 22.9005 26.6004C22.7534 26.8888 22.6798 27.2023 22.6798 27.5407V28.3132C22.6798 28.7664 22.7593 29.152 22.9182 29.4698C23.0801 29.7877 23.3052 30.0304 23.5936 30.1982C23.882 30.363 24.219 30.4454 24.6045 30.4454C24.8547 30.4454 25.0827 30.4101 25.2888 30.3395C25.4948 30.2659 25.6728 30.157 25.8229 30.0128C25.973 29.8686 26.0878 29.6905 26.1672 29.4786L27.4165 29.7038C27.3164 30.0717 27.1369 30.3939 26.8779 30.6705C26.6219 30.9442 26.2997 31.1576 25.9112 31.3106C25.5257 31.4607 25.0857 31.5358 24.5913 31.5358Z" fill="white"/>
<path d="M0.80082 19.3345V8.75332H3.35828V17.2575H7.7602V19.3345H0.80082Z" fill="white"/>
<path d="M37.9619 8.00659L34.1901 19H30.1821L26.4174 8.00659H30.1033L32.1288 15.5789H32.2433L34.276 8.00659H37.9619ZM44.0884 19.2076C42.9385 19.2076 41.9461 18.9809 41.1111 18.5276C40.2808 18.0696 39.6414 17.4183 39.1929 16.5737C38.7492 15.7244 38.5273 14.7152 38.5273 13.5462C38.5273 12.4106 38.7516 11.4182 39.2001 10.5689C39.6486 9.71477 40.2808 9.05154 41.0967 8.57916C41.9127 8.10202 42.8741 7.86345 43.9811 7.86345C44.7636 7.86345 45.4793 7.98512 46.1282 8.22846C46.7771 8.47181 47.3378 8.83205 47.8102 9.30919C48.2825 9.78634 48.6499 10.3756 48.9124 11.077C49.1748 11.7736 49.306 12.5729 49.306 13.4747V14.3478H39.7512V12.3152H46.0495C46.0447 11.943 45.9565 11.6114 45.7847 11.3204C45.6129 11.0293 45.3767 10.8027 45.0761 10.6404C44.7803 10.4734 44.4391 10.3899 44.0526 10.3899C43.6614 10.3899 43.3107 10.4782 43.0005 10.6547C42.6904 10.8265 42.4447 11.0627 42.2634 11.3633C42.082 11.6591 41.9866 11.9955 41.9771 12.3725V14.4409C41.9771 14.8894 42.0653 15.283 42.2419 15.6218C42.4184 15.9558 42.6689 16.2159 42.9934 16.4019C43.3178 16.588 43.7043 16.6811 44.1528 16.6811C44.463 16.6811 44.7445 16.6381 44.9974 16.5522C45.2503 16.4664 45.4674 16.3399 45.6487 16.1729C45.83 16.0059 45.966 15.8007 46.0567 15.5574L49.2702 15.6504C49.1366 16.3709 48.8432 16.9984 48.3899 17.5328C47.9414 18.0624 47.3521 18.4751 46.6221 18.771C45.892 19.062 45.0475 19.2076 44.0884 19.2076Z" fill="white"/>
<path d="M20.0808 14.8662C18.3054 12.918 16.1354 14.3551 16.1354 16.3815C16.1354 18.2171 17.4367 19.2759 18.5446 20.1775L18.5757 20.2028C18.6801 20.2878 18.7826 20.3714 18.8821 20.4542C19.2917 20.7953 19.6863 21.1164 20.0808 21.1164C20.4753 21.1164 20.8699 20.7953 21.2795 20.4542C22.4404 19.4877 24.0262 18.4079 24.0262 16.3815C24.0262 15.7158 23.792 15.1137 23.4146 14.6743C22.6431 13.7762 21.273 13.558 20.0808 14.8662Z" fill="url(#paint0_radial_1716_11203)"/>
<path d="M14.0595 18.4239C12.0452 16.8719 9.6792 15.049 9.6792 11.889C9.6792 8.40056 13.6247 5.92663 16.8527 9.28037C20.0807 5.92663 24.0262 8.40056 24.0262 11.889C24.0262 12.487 23.9415 13.037 23.7905 13.5465C23.2747 13.1322 22.6281 12.8707 21.9114 12.8667C21.273 12.8631 20.6501 13.0636 20.0799 13.4478C19.0836 12.7786 17.9595 12.6886 16.9745 13.1642C15.8014 13.7305 15.0593 14.9976 15.0593 16.3813C15.0593 18.0349 15.8832 19.1949 16.739 20.0356C16.0595 19.9817 15.3787 19.4563 14.6732 18.9002C14.4745 18.7436 14.2689 18.5852 14.0595 18.4239Z" fill="url(#paint1_radial_1716_11203)"/>
<defs>
<radialGradient id="paint0_radial_1716_11203" cx="0" cy="0" r="1" gradientUnits="userSpaceOnUse" gradientTransform="translate(20.0808 17.5296) rotate(90) scale(3.58676 3.94543)">
<stop stop-color="white"/>
<stop offset="1" stop-color="white"/>
</radialGradient>
<radialGradient id="paint1_radial_1716_11203" cx="0" cy="0" r="1" gradientUnits="userSpaceOnUse" gradientTransform="translate(16.8527 13.8633) rotate(90) scale(6.17235 7.17351)">
<stop stop-color="white"/>
<stop offset="1" stop-color="white"/>
</radialGradient>
</defs>
</svg>
