<svg width="70" height="70" viewBox="0 0 70 70" fill="none" xmlns="http://www.w3.org/2000/svg">
<path d="M31.8799 2.06641C33.8269 1.0138 36.1731 1.0138 38.1201 2.06641L50.2412 8.62012L61.9609 15.8301C63.8462 16.99 65.0201 19.0227 65.082 21.2354L65.4658 35L65.082 48.7646C65.0201 50.9773 63.8462 53.0091 61.9609 54.1689L50.2412 61.3799L38.1201 67.9336C36.1731 68.9862 33.8269 68.9862 31.8799 67.9336L19.7588 61.3799L8.03906 54.1699C6.15377 53.01 4.97989 50.9773 4.91797 48.7646L4.5332 35L4.91797 21.2354C4.97989 19.0227 6.15377 16.99 8.03906 15.8301L19.7588 8.62012L31.8799 2.06641Z" fill="white" stroke="#EBEBEB" stroke-width="0.666667"/>
<path d="M14.9754 50.3988L12.468 41.358H13.9026L15.664 48.3593H15.7479L17.5799 41.358H19.0013L20.8333 48.3637H20.9172L22.6741 41.358H24.1132L21.6014 50.3988H20.2285L18.3259 43.6271H18.2553L16.3527 50.3988H14.9754ZM25.2511 50.3988V43.6182H26.571V50.3988H25.2511ZM25.9176 42.572C25.6881 42.572 25.4909 42.4955 25.3261 42.3425C25.1642 42.1865 25.0833 42.0011 25.0833 41.7862C25.0833 41.5685 25.1642 41.383 25.3261 41.23C25.4909 41.074 25.6881 40.996 25.9176 40.996C26.1472 40.996 26.3429 41.074 26.5048 41.23C26.6696 41.383 26.752 41.5685 26.752 41.7862C26.752 42.0011 26.6696 42.1865 26.5048 42.3425C26.3429 42.4955 26.1472 42.572 25.9176 42.572ZM31.5736 43.6182V44.6777H27.7419V43.6182H31.5736ZM28.7925 50.3988V42.8325C28.7925 42.4087 28.8852 42.057 29.0707 41.7774C29.2561 41.4949 29.5018 41.2845 29.8079 41.1461C30.1139 41.0049 30.4465 40.9342 30.8055 40.9342C31.0704 40.9342 31.297 40.9563 31.4854 41.0005C31.6737 41.0417 31.8135 41.0799 31.9047 41.1152L31.5957 42.1835C31.5339 42.1659 31.4545 42.1453 31.3573 42.1217C31.2602 42.0952 31.1425 42.082 31.0042 42.082C30.6834 42.082 30.4538 42.1615 30.3155 42.3204C30.1802 42.4793 30.1125 42.7089 30.1125 43.009V50.3988H28.7925ZM35.5908 50.5357C34.9227 50.5357 34.3474 50.3929 33.8647 50.1075C33.385 49.819 33.0142 49.4144 32.7523 48.8935C32.4933 48.3696 32.3638 47.756 32.3638 47.0527C32.3638 46.3581 32.4933 45.746 32.7523 45.2163C33.0142 44.6865 33.3791 44.273 33.8471 43.9758C34.318 43.6786 34.8683 43.5299 35.4981 43.5299C35.8807 43.5299 36.2515 43.5932 36.6105 43.7198C36.9696 43.8463 37.2918 44.045 37.5773 44.3157C37.8627 44.5865 38.0879 44.9381 38.2527 45.3708C38.4175 45.8004 38.4999 46.3228 38.4999 46.9379V47.4058H33.1099V46.417H37.2065C37.2065 46.0697 37.1358 45.7622 36.9946 45.4944C36.8533 45.2236 36.6547 45.0102 36.3986 44.8543C36.1455 44.6983 35.8483 44.6203 35.5069 44.6203C35.1361 44.6203 34.8124 44.7115 34.5357 44.894C34.262 45.0735 34.0501 45.309 33.9001 45.6003C33.7529 45.8887 33.6793 46.2021 33.6793 46.5406V47.3131C33.6793 47.7663 33.7588 48.1519 33.9177 48.4697C34.0796 48.7875 34.3047 49.0303 34.5931 49.1981C34.8815 49.3629 35.2185 49.4453 35.604 49.4453C35.8542 49.4453 36.0823 49.41 36.2883 49.3393C36.4943 49.2658 36.6723 49.1569 36.8224 49.0127C36.9725 48.8685 37.0873 48.6904 37.1667 48.4785L38.416 48.7037C38.316 49.0715 38.1364 49.3938 37.8775 49.6704C37.6214 49.9441 37.2992 50.1575 36.9107 50.3105C36.5252 50.4606 36.0852 50.5357 35.5908 50.5357Z" fill="#ED145B"/>
<path d="M11.8008 38.3347V27.7536H14.3583V36.2578H18.7602V38.3347H11.8008Z" fill="#ED145B"/>
<path d="M48.962 27.0066L45.1902 38H41.1822L37.4175 27.0066H41.1034L43.1289 34.5789H43.2434L45.2761 27.0066H48.962ZM55.0886 38.2076C53.9386 38.2076 52.9462 37.9809 52.1112 37.5276C51.2809 37.0696 50.6416 36.4183 50.1931 35.5737C49.7493 34.7244 49.5274 33.7152 49.5274 32.5462C49.5274 31.4106 49.7517 30.4182 50.2002 29.5689C50.6487 28.7148 51.2809 28.0515 52.0969 27.5792C52.9128 27.102 53.8742 26.8634 54.9812 26.8634C55.7637 26.8634 56.4794 26.9851 57.1283 27.2285C57.7773 27.4718 58.3379 27.832 58.8103 28.3092C59.2827 28.7863 59.6501 29.3756 59.9125 30.077C60.1749 30.7736 60.3061 31.5729 60.3061 32.4747V33.3478H50.7513V31.3152H57.0496C57.0448 30.943 56.9566 30.6114 56.7848 30.3204C56.613 30.0293 56.3768 29.8027 56.0762 29.6404C55.7804 29.4734 55.4393 29.3899 55.0528 29.3899C54.6615 29.3899 54.3108 29.4782 54.0007 29.6547C53.6905 29.8265 53.4448 30.0627 53.2635 30.3633C53.0822 30.6591 52.9867 30.9955 52.9772 31.3725V33.4409C52.9772 33.8894 53.0655 34.283 53.242 34.6218C53.4185 34.9558 53.669 35.2159 53.9935 35.4019C54.318 35.588 54.7045 35.6811 55.153 35.6811C55.4631 35.6811 55.7446 35.6381 55.9975 35.5522C56.2504 35.4664 56.4675 35.3399 56.6488 35.1729C56.8301 35.0059 56.9661 34.8007 57.0568 34.5574L60.2703 34.6504C60.1367 35.3709 59.8433 35.9984 59.39 36.5328C58.9415 37.0624 58.3522 37.4751 57.6222 37.771C56.8922 38.062 56.0476 38.2076 55.0886 38.2076Z" fill="#ED145B"/>
<rect x="19.2441" y="24.3347" width="17.2164" height="17.2164" rx="3.58676" fill="#ED145B"/>
<path d="M31.0802 33.8662C29.3048 31.918 27.1348 33.3551 27.1348 35.3815C27.1348 37.2171 28.436 38.2759 29.544 39.1775L29.5751 39.2028C29.6795 39.2878 29.782 39.3714 29.8815 39.4542C30.2911 39.7953 30.6857 40.1164 31.0802 40.1164C31.4747 40.1164 31.8693 39.7953 32.2789 39.4542C33.4398 38.4877 35.0256 37.4079 35.0256 35.3815C35.0256 34.7158 34.7914 34.1137 34.414 33.6743C33.6424 32.7762 32.2723 32.558 31.0802 33.8662Z" fill="url(#paint0_radial_1249_9653)"/>
<path d="M25.0591 37.4241C23.0447 35.8721 20.6787 34.0492 20.6787 30.8892C20.6787 27.4008 24.6243 24.9269 27.8522 28.2806C31.0802 24.9269 35.0257 27.4008 35.0257 30.8892C35.0257 31.4872 34.941 32.0373 34.79 32.5467C34.2742 32.1324 33.6276 31.8709 32.911 31.8669C32.2725 31.8633 31.6496 32.0638 31.0794 32.448C30.0831 31.7789 28.959 31.6889 27.974 32.1644C26.8009 32.7307 26.0588 33.9978 26.0588 35.3815C26.0588 37.0352 26.8827 38.1951 27.7385 39.0359C27.059 38.9819 26.3782 38.4566 25.6727 37.9005C25.474 37.7438 25.2684 37.5854 25.0591 37.4241Z" fill="url(#paint1_radial_1249_9653)"/>
<defs>
<radialGradient id="paint0_radial_1249_9653" cx="0" cy="0" r="1" gradientUnits="userSpaceOnUse" gradientTransform="translate(31.0802 36.5296) rotate(90) scale(3.58676 3.94543)">
<stop stop-color="white"/>
<stop offset="1" stop-color="white"/>
</radialGradient>
<radialGradient id="paint1_radial_1249_9653" cx="0" cy="0" r="1" gradientUnits="userSpaceOnUse" gradientTransform="translate(27.8522 32.8635) rotate(90) scale(6.17235 7.17351)">
<stop stop-color="white"/>
<stop offset="1" stop-color="white"/>
</radialGradient>
</defs>
</svg>
