<svg width="18" height="18" viewBox="0 0 18 18" fill="none" xmlns="http://www.w3.org/2000/svg">
<path d="M6.29251 13.868V6.24803C6.29251 5.94803 6.38251 5.65553 6.54751 5.40803L8.59501 2.36303C8.91751 1.87553 9.72001 1.53053 10.4025 1.78553C11.1375 2.03303 11.625 2.85803 11.4675 3.59303L11.0775 6.04553C11.0475 6.27053 11.1075 6.47303 11.235 6.63053C11.3625 6.77303 11.55 6.86303 11.7525 6.86303H14.835C15.4275 6.86303 15.9375 7.10303 16.2375 7.52303C16.5225 7.92803 16.575 8.45303 16.3875 8.98553L14.5425 14.603C14.31 15.533 13.2975 16.2905 12.2925 16.2905H9.36751C8.86501 16.2905 8.16001 16.118 7.83751 15.7955L6.87751 15.053C6.51001 14.7755 6.29251 14.333 6.29251 13.868Z" fill="#B20F44"/>
<path d="M3.9075 4.78516H3.135C1.9725 4.78516 1.5 5.23516 1.5 6.34516V13.8902C1.5 15.0002 1.9725 15.4502 3.135 15.4502H3.9075C5.07 15.4502 5.5425 15.0002 5.5425 13.8902V6.34516C5.5425 5.23516 5.07 4.78516 3.9075 4.78516Z" fill="#B20F44"/>
</svg>
