<svg width="18" height="18" viewBox="0 0 18 18" fill="none" xmlns="http://www.w3.org/2000/svg">
<path d="M6.29251 13.8675V6.24754C6.29251 5.94754 6.38251 5.65504 6.54751 5.40754L8.59501 2.36254C8.91751 1.87504 9.72001 1.53004 10.4025 1.78504C11.1375 2.03254 11.625 2.85754 11.4675 3.59254L11.0775 6.04504C11.0475 6.27004 11.1075 6.47254 11.235 6.63004C11.3625 6.77254 11.55 6.86254 11.7525 6.86254H14.835C15.4275 6.86254 15.9375 7.10254 16.2375 7.52254C16.5225 7.92754 16.575 8.45254 16.3875 8.98504L14.5425 14.6025C14.31 15.5325 13.2975 16.29 12.2925 16.29H9.36751C8.86501 16.29 8.16001 16.1175 7.83751 15.795L6.87751 15.0525C6.51001 14.775 6.29251 14.3325 6.29251 13.8675Z" fill="#ED145B"/>
<path d="M3.9075 4.78516H3.135C1.9725 4.78516 1.5 5.23516 1.5 6.34516V13.8902C1.5 15.0002 1.9725 15.4502 3.135 15.4502H3.9075C5.07 15.4502 5.5425 15.0002 5.5425 13.8902V6.34516C5.5425 5.23516 5.07 4.78516 3.9075 4.78516Z" fill="#ED145B"/>
</svg>
