<svg width="22" height="22" viewBox="0 0 22 22" fill="none" xmlns="http://www.w3.org/2000/svg">
<path d="M8.24996 14.6667C8.24996 15.1729 7.83955 15.5833 7.33329 15.5833C6.82703 15.5833 6.41663 15.1729 6.41663 14.6667C6.41663 14.1604 6.82703 13.75 7.33329 13.75C7.83955 13.75 8.24996 14.1604 8.24996 14.6667Z" fill="#667085"/>
<path d="M11.9166 14.6667C11.9166 15.1729 11.5062 15.5833 11 15.5833C10.4937 15.5833 10.0833 15.1729 10.0833 14.6667C10.0833 14.1604 10.4937 13.75 11 13.75C11.5062 13.75 11.9166 14.1604 11.9166 14.6667Z" fill="#667085"/>
<path d="M15.5833 14.6667C15.5833 15.1729 15.1729 15.5833 14.6666 15.5833C14.1604 15.5833 13.75 15.1729 13.75 14.6667C13.75 14.1604 14.1604 13.75 14.6666 13.75C15.1729 13.75 15.5833 14.1604 15.5833 14.6667Z" fill="#667085"/>
<path d="M10.0834 20.1667H7.33337C4.74065 20.1667 3.44429 20.1667 2.63883 19.3612C1.83337 18.5558 1.83337 17.2594 1.83337 14.6667C1.83337 12.074 1.83337 10.7776 2.63883 9.97214C3.44429 9.16669 4.74065 9.16669 7.33337 9.16669H14.6667C17.2594 9.16669 18.5558 9.16669 19.3613 9.97214C20.1667 10.7776 20.1667 12.074 20.1667 14.6667C20.1667 17.2594 20.1667 18.5558 19.3613 19.3612C18.5558 20.1667 17.2594 20.1667 14.6667 20.1667H13.75" stroke="#667085" stroke-width="1.375" stroke-linecap="round"/>
<path d="M5.5 9.16665V7.33331C5.5 7.02099 5.52603 6.71475 5.57605 6.41665M16.3267 5.95831C15.7162 3.58613 13.5628 1.83331 11 1.83331C9.37108 1.83331 7.90756 2.54144 6.90047 3.66665" stroke="#667085" stroke-width="1.375" stroke-linecap="round"/>
</svg>
