<svg width="22" height="22" viewBox="0 0 22 22" fill="none" xmlns="http://www.w3.org/2000/svg">
<path d="M13.1636 3.73875L14.0132 2.88911C15.4209 1.48138 17.7033 1.48138 19.111 2.88911C20.5188 4.29684 20.5188 6.57922 19.111 7.98695L18.2614 8.83659M13.1636 3.73875C13.1636 3.73875 13.2698 5.54423 14.8628 7.13731C16.4559 8.73038 18.2614 8.83659 18.2614 8.83659M13.1636 3.73875L11.0002 5.90214M18.2614 8.83659L13.4392 13.6588L10.598 16.5L10.4503 16.6477C9.92119 17.1768 9.65666 17.4413 9.36498 17.6688C9.02091 17.9372 8.64863 18.1673 8.25472 18.355C7.9208 18.5141 7.56589 18.6324 6.85608 18.869L3.84826 19.8717M3.84826 19.8717L3.11302 20.1167C2.76371 20.2332 2.3786 20.1423 2.11824 19.8819C1.85788 19.6215 1.76697 19.2364 1.88341 18.8871L2.12849 18.1519M3.84826 19.8717L2.12849 18.1519M2.12849 18.1519L3.13109 15.1441C3.3677 14.4342 3.486 14.0793 3.64514 13.7454C3.83287 13.3515 4.06295 12.9792 4.33132 12.6352C4.55882 12.3435 4.82335 12.079 5.35242 11.5499L7.79183 9.11048" stroke="#ED145B" stroke-width="1.375" stroke-linecap="round"/>
</svg>
