<svg width="20" height="20" viewBox="0 0 20 20" fill="none" xmlns="http://www.w3.org/2000/svg">
<path d="M13.7933 18.1263C13.4108 18.1263 13.0259 18.0746 12.6459 17.9705C7.50922 16.5605 3.44087 12.4955 2.03004 7.3613C1.7092 6.1938 1.88499 4.97712 2.52666 3.93712C3.17083 2.89212 4.23004 2.15545 5.43254 1.91462C6.22671 1.75545 7.02337 2.11046 7.42921 2.79546L8.7317 4.99461C9.3642 6.06294 9.04992 7.43961 8.01576 8.12711L7.07337 8.75379C7.95421 10.563 9.43575 12.048 11.2366 12.928L11.8718 11.9805C12.5626 10.948 13.94 10.6388 15.0075 11.2746L17.2101 12.5879C17.8918 12.9946 18.245 13.7896 18.0892 14.5671C17.8492 15.7696 17.1117 16.8288 16.0675 17.4729C15.3658 17.9054 14.585 18.1263 13.7933 18.1263ZM5.81503 3.12462C5.7742 3.12462 5.73255 3.1288 5.69255 3.13713C4.81422 3.31296 4.05422 3.84211 3.59172 4.59294C3.13422 5.33461 3.00837 6.20045 3.2367 7.02962C4.53087 11.7413 8.26336 15.4713 12.9767 16.7646C13.8059 16.9921 14.6708 16.8655 15.4108 16.4088C16.1608 15.9463 16.6909 15.1846 16.8634 14.3213C16.9151 14.0621 16.7975 13.7963 16.57 13.6613L14.3675 12.3479C13.8691 12.0521 13.23 12.1971 12.91 12.6763L11.9808 14.0638C11.8141 14.3121 11.4926 14.4071 11.2209 14.2921C8.75175 13.2605 6.7434 11.2463 5.70924 8.76795C5.59424 8.49129 5.69162 8.17296 5.93995 8.00712L7.32423 7.08628C7.80423 6.76711 7.95002 6.12795 7.65585 5.63212L6.35336 3.43295C6.23919 3.23878 6.03253 3.12462 5.81503 3.12462ZM12.3908 12.328H12.3991H12.3908ZM14.7917 8.33295C14.7917 6.60962 13.3892 5.20795 11.6667 5.20795C11.3217 5.20795 11.0417 5.48795 11.0417 5.83295C11.0417 6.17795 11.3217 6.45795 11.6667 6.45795C12.7 6.45795 13.5417 7.29878 13.5417 8.33295C13.5417 8.67795 13.8217 8.95795 14.1667 8.95795C14.5117 8.95795 14.7917 8.67795 14.7917 8.33295ZM17.2917 8.33295C17.2917 5.23128 14.7683 2.70795 11.6667 2.70795C11.3217 2.70795 11.0417 2.98795 11.0417 3.33295C11.0417 3.67795 11.3217 3.95795 11.6667 3.95795C14.0792 3.95795 16.0417 5.92045 16.0417 8.33295C16.0417 8.67795 16.3217 8.95795 16.6667 8.95795C17.0117 8.95795 17.2917 8.67795 17.2917 8.33295Z" fill="#868686"/>
</svg>
