<svg width="20" height="20" viewBox="0 0 20 20" fill="none" xmlns="http://www.w3.org/2000/svg">
<path d="M3.33746 18.1242C2.95663 18.1242 2.58678 17.9741 2.30678 17.6941C1.91178 17.3 1.77594 16.7275 1.95094 16.2008L2.65163 14.1167C2.73329 13.8608 2.72589 13.6041 2.63006 13.4016C2.13673 12.3408 1.87831 11.1659 1.87831 9.99919C1.87831 5.52002 5.52252 1.875 10.0017 1.875C10.31 1.875 10.6101 1.89334 10.9101 1.92917C11.2534 1.97084 11.4968 2.28252 11.4551 2.62502C11.4143 2.96752 11.0918 3.21085 10.7601 3.17001C10.5093 3.13918 10.2592 3.12419 10.0017 3.12419C6.21168 3.12419 3.12831 6.20749 3.12831 9.99832C3.12831 10.9842 3.34749 11.9767 3.76165 12.8683C3.99165 13.3525 4.02163 13.935 3.84079 14.5042L3.13747 16.5967C3.10247 16.7008 3.15597 16.775 3.19097 16.81C3.22597 16.845 3.30084 16.8984 3.405 16.8634L5.48671 16.1641C6.06504 15.98 6.64832 16.0084 7.13832 16.2425C8.02332 16.6542 9.01585 16.8733 10.0017 16.8733C13.7925 16.8733 16.8759 13.79 16.8759 9.99919C16.8759 9.74169 16.8609 9.49166 16.8309 9.24082C16.7892 8.89832 17.0326 8.58669 17.3759 8.54502C17.7118 8.50419 18.0293 8.74752 18.0709 9.09002C18.1076 9.39002 18.1251 9.68915 18.1251 9.99832C18.1251 14.4775 14.4809 18.1225 10.0009 18.1225C8.83504 18.1225 7.66008 17.8633 6.60508 17.3725C6.39841 17.2733 6.14091 17.2667 5.87591 17.3508L3.80173 18.0475C3.6484 18.0992 3.49163 18.1242 3.33746 18.1242ZM18.1251 4.16667C18.1251 2.90333 17.0976 1.875 15.8334 1.875C14.5692 1.875 13.5417 2.90333 13.5417 4.16667C13.5417 5.43 14.5692 6.45833 15.8334 6.45833C17.0976 6.45833 18.1251 5.43 18.1251 4.16667ZM16.8751 4.16667C16.8751 4.74083 16.4076 5.20833 15.8334 5.20833C15.2592 5.20833 14.7917 4.74083 14.7917 4.16667C14.7917 3.5925 15.2592 3.125 15.8334 3.125C16.4076 3.125 16.8751 3.5925 16.8751 4.16667ZM10.8501 10C10.8501 9.54 10.4776 9.16667 10.0167 9.16667H10.0084C9.5484 9.16667 9.17913 9.54 9.17913 10C9.17913 10.46 9.55674 10.8333 10.0167 10.8333C10.4767 10.8333 10.8501 10.46 10.8501 10ZM14.1834 10C14.1834 9.54 13.8109 9.16667 13.3501 9.16667H13.3417C12.8817 9.16667 12.5125 9.54 12.5125 10C12.5125 10.46 12.8901 10.8333 13.3501 10.8333C13.8101 10.8333 14.1834 10.46 14.1834 10ZM7.51674 10C7.51674 9.54 7.14424 9.16667 6.68341 9.16667H6.67506C6.21506 9.16667 5.8458 9.54 5.8458 10C5.8458 10.46 6.22341 10.8333 6.68341 10.8333C7.14341 10.8333 7.51674 10.46 7.51674 10Z" fill="#868686"/>
</svg>
