<svg width="18" height="18" viewBox="0 0 18 18" fill="none" xmlns="http://www.w3.org/2000/svg">
<path d="M15.75 5.8125H2.25C1.9425 5.8125 1.6875 5.5575 1.6875 5.25C1.6875 4.9425 1.9425 4.6875 2.25 4.6875H15.75C16.0575 4.6875 16.3125 4.9425 16.3125 5.25C16.3125 5.5575 16.0575 5.8125 15.75 5.8125Z" fill="#667085"/>
<path d="M13.5 9.5625H4.5C4.1925 9.5625 3.9375 9.3075 3.9375 9C3.9375 8.6925 4.1925 8.4375 4.5 8.4375H13.5C13.8075 8.4375 14.0625 8.6925 14.0625 9C14.0625 9.3075 13.8075 9.5625 13.5 9.5625Z" fill="#667085"/>
<path d="M10.4999 13.3125H7.49994C7.19244 13.3125 6.93744 13.0575 6.93744 12.75C6.93744 12.4425 7.19244 12.1875 7.49994 12.1875H10.4999C10.8074 12.1875 11.0624 12.4425 11.0624 12.75C11.0624 13.0575 10.8074 13.3125 10.4999 13.3125Z" fill="#667085"/>
</svg>
