<svg width="15" height="15" viewBox="0 0 15 15" fill="none" xmlns="http://www.w3.org/2000/svg">
<circle cx="5.625" cy="3.75" r="2.5" stroke="#92400E" stroke-width="0.9375"/>
<ellipse cx="5.625" cy="10.625" rx="4.375" ry="2.5" stroke="#92400E" stroke-width="0.9375"/>
<path d="M10.6803 7.83653L10.9647 7.46391L10.6803 7.83653ZM11.25 5.40221L10.9176 5.7327C11.0056 5.8212 11.1252 5.87096 11.25 5.87096C11.3748 5.87096 11.4944 5.8212 11.5824 5.7327L11.25 5.40221ZM11.8197 7.83653L11.5353 7.46391L11.8197 7.83653ZM10.6803 7.83653L10.9647 7.46391C10.6607 7.23189 10.3869 7.04624 10.1662 6.80571C9.96169 6.58274 9.84375 6.35235 9.84375 6.06233H9.375H8.90625C8.90625 6.65506 9.16514 7.10125 9.47535 7.43943C9.76945 7.76006 10.1483 8.02013 10.3959 8.20916L10.6803 7.83653ZM9.375 6.06233H9.84375C9.84375 5.80485 9.99364 5.59668 10.1858 5.51164C10.3522 5.438 10.6171 5.43046 10.9176 5.7327L11.25 5.40221L11.5824 5.07173C11.0392 4.52529 10.3666 4.40644 9.80641 4.65434C9.272 4.89083 8.90625 5.43706 8.90625 6.06233H9.375ZM10.6803 7.83653L10.3959 8.20916C10.489 8.28022 10.6098 8.37246 10.737 8.44447C10.8645 8.51659 11.041 8.59375 11.25 8.59375V8.125V7.65625C11.2715 7.65625 11.2605 7.66347 11.1987 7.6285C11.1367 7.59342 11.0663 7.54142 10.9647 7.46391L10.6803 7.83653ZM11.8197 7.83653L12.1041 8.20916C12.3517 8.02013 12.7305 7.76006 13.0247 7.43943C13.3349 7.10125 13.5938 6.65506 13.5938 6.06233H13.125H12.6562C12.6562 6.35235 12.5383 6.58274 12.3338 6.80571C12.1131 7.04624 11.8393 7.23189 11.5353 7.46391L11.8197 7.83653ZM13.125 6.06233H13.5938C13.5938 5.43706 13.228 4.89083 12.6936 4.65434C12.1334 4.40644 11.4608 4.52529 10.9176 5.07173L11.25 5.40221L11.5824 5.7327C11.8829 5.43046 12.1478 5.438 12.3142 5.51164C12.5064 5.59668 12.6562 5.80485 12.6562 6.06233H13.125ZM11.8197 7.83653L11.5353 7.46391C11.4337 7.54142 11.3633 7.59342 11.3013 7.6285C11.2395 7.66347 11.2285 7.65625 11.25 7.65625V8.125V8.59375C11.459 8.59375 11.6355 8.51659 11.763 8.44447C11.8902 8.37246 12.011 8.28022 12.1041 8.20916L11.8197 7.83653Z" fill="#92400E"/>
</svg>
