<svg width="22" height="22" viewBox="0 0 22 22" fill="none" xmlns="http://www.w3.org/2000/svg">
<path d="M8.70837 16.2709C8.32868 16.2709 8.02087 16.5787 8.02087 16.9584C8.02087 17.338 8.32868 17.6459 8.70837 17.6459V16.2709ZM13.2917 17.6459C13.6714 17.6459 13.9792 17.338 13.9792 16.9584C13.9792 16.5787 13.6714 16.2709 13.2917 16.2709V17.6459ZM10.3125 20.1667C10.3126 20.5464 10.6204 20.8542 11.0001 20.8542C11.3798 20.8542 11.6876 20.5463 11.6875 20.1666L10.3125 20.1667ZM10.9998 14.6667H10.3123V16.9584H10.9998H11.6873V14.6667H10.9998ZM10.9998 16.9584V16.2709H8.70837V16.9584V17.6459H10.9998V16.9584ZM13.2917 16.9584V16.2709H10.9998V16.9584V17.6459H13.2917V16.9584ZM10.9998 16.9584L10.3123 16.9584L10.3125 20.1667L11 20.1667L11.6875 20.1666L11.6873 16.9583L10.9998 16.9584Z" fill="#667085"/>
<path d="M7.79171 2.69175C8.73551 2.14579 9.83129 1.83331 11 1.83331C14.5439 1.83331 17.4167 4.70615 17.4167 8.24998C17.4167 11.7938 14.5439 14.6666 11 14.6666C7.45621 14.6666 4.58337 11.7938 4.58337 8.24998C4.58337 7.08123 4.89585 5.98545 5.44181 5.04165" stroke="#667085" stroke-width="1.375" stroke-linecap="round"/>
</svg>
